<svg width="91" height="91" viewBox="0 0 91 91" fill="none" xmlns="http://www.w3.org/2000/svg">
<path d="M11.58 7.22003C10.6374 7.22003 9.6764 7.56538 8.99586 8.24592C8.31532 8.92646 7.96997 9.88742 7.96997 10.83V79.42C7.96997 80.3626 8.31532 81.3236 8.99586 82.0041C9.6764 82.6847 10.6374 83.03 11.58 83.03H80.17C81.1126 83.03 82.0735 82.6847 82.7541 82.0041C83.4346 81.3236 83.78 80.3626 83.78 79.42V10.83C83.78 9.88742 83.4346 8.92646 82.7541 8.24592C82.0735 7.56538 81.1126 7.22003 80.17 7.22003H11.58ZM11.58 10.83H80.17V79.42H11.58V10.83ZM34.3223 25.27C31.6148 25.27 29.63 25.4512 27.825 25.9927V64.98H32.3375V48.5552H34.3223C37.7518 48.5552 41.3611 47.1105 43.5271 44.2225C44.9711 42.237 45.875 39.8898 45.875 36.2798C45.875 32.8503 44.7927 29.9623 42.9877 28.1573C41.0022 26.1718 37.9323 25.27 34.3223 25.27ZM35.045 28.3371C39.9185 28.3371 41.5423 31.9492 41.5423 35.9202C41.5423 41.3352 38.6543 44.2225 34.3223 44.2225C33.6003 44.2225 33.0588 44.0427 32.5173 44.0427V28.7002C33.0588 28.5197 33.962 28.3371 35.045 28.3371ZM57.9671 36.1C53.4546 36.1 50.0279 39.3504 50.0279 43.8629C50.0279 46.9314 52.012 49.4556 55.8025 51.8021C58.871 53.7876 59.5923 55.2344 59.5923 57.4004C59.5923 59.7469 57.7866 61.37 55.2596 61.37C53.4546 61.37 51.6503 60.6466 50.5673 59.9246L49.3052 63.5346C50.5687 64.4371 52.9138 65.1598 55.0798 65.1598C59.7728 65.1598 63.7452 62.453 63.7452 56.8575C63.7452 52.8865 61.2168 50.3581 57.7873 48.1921C54.8993 46.2066 54.1773 45.125 54.1773 43.32C54.1773 41.515 55.4401 39.71 57.9671 39.71C59.5916 39.71 60.8572 40.2501 61.9402 40.9721L63.2023 37.5454C61.9388 36.8234 60.3136 36.1 57.9671 36.1Z" fill="black"/>
</svg>
