<svg width="91" height="91" viewBox="0 0 91 91" fill="none" xmlns="http://www.w3.org/2000/svg">
<path d="M33.8924 3.60999C25.4406 3.60999 18.5499 10.5006 18.5499 18.9525C18.5499 24.9095 22.0695 29.9501 27.0496 32.49C22.0695 35.0299 18.5499 40.0705 18.5499 46.0275C18.5499 51.9845 22.0695 57.0251 27.0496 59.565C22.0695 62.1049 18.5499 67.1455 18.5499 73.1025C18.5499 81.5544 25.4406 88.445 33.8924 88.445C42.3443 88.445 49.2349 81.5544 49.2349 73.1025V59.565V53.5295C51.6561 58.1241 56.3323 61.37 61.8699 61.37C69.8235 61.37 76.3099 54.8836 76.3099 46.93C76.3099 40.3927 71.8447 35.0688 65.8677 33.3008C71.8941 31.2296 76.3099 25.6675 76.3099 18.9525C76.3099 10.5006 69.4193 3.60999 60.9674 3.60999H47.4299H33.8924ZM33.8924 7.21999H45.6249V30.685H33.8924C27.3917 30.685 22.1599 25.4532 22.1599 18.9525C22.1599 12.4517 27.3917 7.21999 33.8924 7.21999ZM49.2349 7.21999H60.9674C67.4682 7.21999 72.6999 12.4517 72.6999 18.9525C72.6999 25.4532 67.4682 30.685 60.9674 30.685H49.2349V7.21999ZM33.8924 34.295H45.6249V57.76H33.8924C27.3917 57.76 22.1599 52.5282 22.1599 46.0275C22.1599 39.5267 27.3917 34.295 33.8924 34.295ZM49.2349 34.295H55.2704C52.6804 35.6598 50.5998 37.7404 49.2349 40.3305V34.295ZM61.8699 36.1C67.8726 36.1 72.6999 40.9274 72.6999 46.93C72.6999 52.9326 67.8726 57.76 61.8699 57.76C55.8673 57.76 51.0399 52.9326 51.0399 46.93C51.0399 40.9274 55.8673 36.1 61.8699 36.1ZM33.8924 61.37H45.6249V73.1025C45.6249 79.6032 40.3932 84.835 33.8924 84.835C27.3917 84.835 22.1599 79.6032 22.1599 73.1025C22.1599 66.6017 27.3917 61.37 33.8924 61.37Z" fill="black"/>
</svg>
