<svg width="91" height="91" viewBox="0 0 91 91" fill="none" xmlns="http://www.w3.org/2000/svg">
<path d="M45.375 3.60999C22.4719 3.60999 3.85999 22.2219 3.85999 45.125C3.85999 68.028 22.4719 86.64 45.375 86.64C68.278 86.64 86.89 68.028 86.89 45.125C86.89 22.2219 68.278 3.60999 45.375 3.60999ZM45.375 7.21999C66.3262 7.21999 83.28 24.1737 83.28 45.125C83.28 45.2538 83.2707 45.3807 83.2694 45.5093C82.1149 45.4027 80.781 45.3015 79.0848 45.2413C76.6864 45.1563 73.6634 45.1809 70.236 45.3506C70.3631 44.4655 70.4522 43.568 70.4546 42.6466C70.6294 39.2666 69.4943 36.1044 67.6484 33.3114C68.0944 31.7704 68.6175 29.81 68.7483 27.5862C68.8974 25.0514 68.6786 22.2408 66.6437 20.3415L66.1219 19.855H65.4098C60.5668 19.855 57.2519 21.8824 55.2249 23.4897C52.2981 22.3568 49.007 21.66 45.375 21.66C41.7223 21.66 38.3996 22.3665 35.3523 23.4967C33.3264 21.8887 30.0086 19.855 25.1604 19.855H24.4518L23.93 20.338C21.9478 22.1786 21.7652 24.9122 21.8888 27.4346C21.9979 29.6589 22.4907 31.6816 22.9288 33.2973C21.0517 36.1449 19.9252 39.3887 19.9252 42.5973C19.9252 43.5208 20.0111 44.4212 20.1367 45.3083C16.8773 45.1571 13.9718 45.128 11.6652 45.2096C9.96903 45.2696 8.63501 45.3699 7.48056 45.4775C7.47948 45.3596 7.46999 45.2432 7.46999 45.125C7.46999 24.1737 24.4237 7.21999 45.375 7.21999ZM26.2356 23.7012C29.8774 24.0463 32.6172 25.6724 33.8857 26.8L34.7318 27.5474L35.7753 27.1208C38.6299 25.9454 41.8137 25.27 45.375 25.27C48.9363 25.27 52.121 25.9488 54.7596 27.1032L55.8172 27.5685L56.6809 26.8C57.9498 25.6721 60.6944 24.0454 64.3381 23.7012C64.8225 24.5044 65.2435 25.6466 65.1418 27.3746C65.0202 29.4427 64.467 31.6952 64.049 33.0329L63.7775 33.9037L64.3169 34.6405C66.1029 37.0759 67.0135 39.7117 66.8587 42.4986L66.8552 42.5479V42.5973C66.8552 47.1016 65.2332 50.7067 61.7786 53.3779C58.3241 56.0492 52.8705 57.76 45.1952 57.76C37.5198 57.76 32.0628 56.0492 28.6082 53.3779C25.1537 50.7067 23.5352 47.1016 23.5352 42.5973C23.5352 39.9535 24.4899 37.0451 26.2533 34.6405L26.7821 33.9213L26.5282 33.0646C26.11 31.6425 25.5973 29.3386 25.4953 27.2583C25.4105 25.528 25.82 24.4343 26.2356 23.7012ZM16.287 46.9688C17.5626 46.9851 19.0246 47.0539 20.4893 47.1274C20.6292 47.6902 20.7888 48.2438 20.9828 48.7843C15.013 48.9102 10.547 49.5105 7.79432 50.0253C7.67793 49.1221 7.58523 48.2116 7.53344 47.2896C9.56777 47.0965 12.4355 46.9196 16.287 46.9688ZM74.463 46.997C78.3118 46.9481 81.1785 47.1252 83.213 47.3178C83.1613 48.2266 83.0702 49.1243 82.9557 50.0147C80.1046 49.4917 75.5179 48.8915 69.3935 48.7949C69.5835 48.2651 69.7418 47.721 69.88 47.1697C71.4957 47.0831 73.0719 47.0146 74.463 46.997ZM21.7513 50.5752C22.8285 52.7337 24.3675 54.6608 26.4013 56.2335C29.182 58.3837 32.7971 59.886 37.2102 60.6896C36.6328 61.2828 36.1077 61.9342 35.6414 62.6215L35.5321 62.5263C35.542 62.5149 34.6348 62.969 33.2794 63.0904C31.924 63.2118 30.252 63.175 28.7704 63.175C26.5593 63.175 25.5853 62.1303 24.0287 60.2278C23.1668 59.066 22.1159 58.1252 21.0956 57.411C20.0509 56.6796 19.1596 56.1635 18.0567 55.9797L17.9087 55.955H17.7571C16.9147 55.955 16.0997 56.016 15.3387 56.8857C14.9582 57.3205 14.6959 58.1256 14.8663 58.807C15.0366 59.4884 15.4677 59.9072 15.8534 60.1643C18.3203 61.8089 18.7563 65.0639 20.3024 67.9589C21.7463 70.836 24.8624 72.2 28.0477 72.2H32.74V80.8689C20.0469 76.3885 10.4747 65.3493 8.0693 51.8091C10.8326 51.2887 15.4599 50.6629 21.7513 50.5752ZM68.6285 50.5893C75.0592 50.6444 79.8163 51.2693 82.6842 51.7985C80.282 65.3437 70.7065 76.3874 58.01 80.8689V71.4773C58.01 68.6171 57.0707 65.4632 55.4364 62.833C54.9403 62.0345 54.3566 61.2793 53.7055 60.6014C57.8845 59.7759 61.3174 58.2994 63.989 56.2335C66.0185 54.6642 67.5541 52.7428 68.6285 50.5893ZM43.0271 61.5498H48.0825C49.5496 61.5498 51.1156 62.719 52.3694 64.7367C53.6231 66.7544 54.4 69.4639 54.4 71.4773V81.9442C51.5073 82.6496 48.4864 83.03 45.375 83.03C42.2635 83.03 39.2427 82.6496 36.35 81.9442V71.4773C36.35 69.5085 37.1944 66.8054 38.5322 64.779C39.87 62.7527 41.5599 61.5498 43.0271 61.5498ZM22.467 63.6826C24.0297 65.3035 25.9216 66.785 28.7704 66.785C30.1768 66.785 31.9322 66.8357 33.6002 66.6863C33.6061 66.6857 33.6119 66.6833 33.6178 66.6827C33.3981 67.3145 33.2341 67.9502 33.096 68.59H28.0477C25.8215 68.59 24.2488 67.7857 23.5246 66.3373L23.5105 66.3126L23.4999 66.2914C23.2032 65.7402 22.8136 64.6381 22.467 63.6826Z" fill="black"/>
</svg>
