<svg width="91" height="91" viewBox="0 0 91 91" fill="none" xmlns="http://www.w3.org/2000/svg">
<path d="M64.0775 3.60999C62.9331 3.60999 61.8653 4.04561 61.0668 4.76279C61.0552 4.77391 60.8998 4.92736 60.8412 4.99194C60.7812 5.05803 60.7011 5.15205 60.5944 5.27044C60.3811 5.50724 60.0722 5.84692 59.6848 6.27871C58.9102 7.14228 57.8141 8.3693 56.5014 9.83582C53.876 12.7689 50.3902 16.6666 46.9088 20.5601L34.1504 34.8308C30.9722 32.2498 27.4226 29.3689 24.8892 27.3112C22.4849 25.3583 20.4775 23.7278 19.0618 22.5766C18.3539 22.001 17.794 21.5442 17.4084 21.2299C17.2155 21.0727 17.066 20.9501 16.9642 20.8668C16.92 20.8306 16.887 20.8063 16.8619 20.7857L16.8584 20.7822H16.8549C16.2189 20.2117 15.3616 19.855 14.44 19.855C13.7378 19.855 13.5493 19.9971 13.192 20.1264C12.8347 20.2558 12.4473 20.4194 12.0216 20.6094C11.1701 20.9894 10.177 21.4777 9.21536 21.9632C7.29215 22.9342 5.50312 23.8986 5.50312 23.8986L5.5137 23.9198C4.39085 24.5364 3.60999 25.72 3.60999 27.075V64.98C3.60999 66.3946 4.45822 67.6267 5.66176 68.2163L5.65471 68.2304C5.65471 68.2304 7.31265 69.0755 9.05671 69.9543C9.92875 70.3937 10.8244 70.8416 11.5456 71.1988C12.2669 71.556 12.6698 71.7672 13.0862 71.9356C13.5025 72.1042 13.9647 72.2 14.44 72.2C15.0754 72.2 15.6899 72.0263 16.2168 71.7276L16.2203 71.7311C16.2207 71.7309 16.3856 71.6235 16.4072 71.6077C16.4287 71.5918 16.4406 71.5864 16.4495 71.5795C16.4673 71.5658 16.4749 71.5557 16.4847 71.5478C16.5043 71.5321 16.5227 71.5199 16.5446 71.502C16.5885 71.4661 16.6472 71.4185 16.7209 71.3574C16.8684 71.2353 17.0788 71.0608 17.3449 70.8392C17.8771 70.3959 18.6288 69.7665 19.5306 69.013C21.3344 67.5061 23.7302 65.5017 26.1231 63.4993C30.2615 60.0364 33.3483 57.4512 34.3902 56.579C40.9263 63.6733 47.4682 70.7739 52.3979 76.1202C54.9287 78.8649 57.0471 81.1612 58.5426 82.7797C59.2904 83.5889 59.8826 84.2287 60.2947 84.6728C60.5008 84.8949 60.6598 85.0688 60.7742 85.191C60.8314 85.2522 60.8789 85.2974 60.9152 85.3356C60.9515 85.3738 60.838 85.2831 61.0739 85.4942L61.0774 85.4978C61.873 86.2063 62.9369 86.64 64.0775 86.64C64.7467 86.64 65.3788 86.4808 65.953 86.2134L65.96 86.2275C65.96 86.2275 70.3012 83.9817 74.7065 81.6974C76.9092 80.5552 79.1277 79.4029 80.8301 78.5175C81.6814 78.0748 82.404 77.6968 82.9313 77.4211C83.4585 77.1454 83.6699 77.0409 83.9113 76.9029C85.5435 75.969 86.64 74.1996 86.64 72.2V18.05C86.64 16.1941 85.6938 14.5343 84.2533 13.5622C84.0084 13.3963 83.9833 13.3983 83.8126 13.3048C83.642 13.2113 83.4197 13.0924 83.1498 12.9487C82.6102 12.6614 81.8781 12.2748 81.017 11.8241C79.2948 10.9228 77.057 9.75979 74.837 8.60899C70.3984 6.30812 66.0368 4.05913 66.0341 4.05771H66.0305C65.437 3.77312 64.7701 3.60999 64.0775 3.60999ZM64.0775 7.21999C64.2751 7.21999 64.4351 7.27265 64.5816 7.37158C64.8243 7.53581 64.98 7.79613 64.98 8.12249V26.2324L44.5997 43.3165C43.5399 42.4562 43.5345 42.4522 42.4668 41.5855C40.4668 39.9619 38.9093 38.6974 36.9567 37.1118C38.0499 35.888 43.2678 30.0447 49.5987 22.9644C53.0799 19.0711 56.5667 15.1722 59.1913 12.2401C60.5036 10.7741 61.6017 9.55176 62.3747 8.69007C62.7612 8.25923 63.0637 7.9185 63.2737 7.68534C63.3686 7.57999 63.4388 7.50104 63.4923 7.44208C63.6485 7.30627 63.8415 7.21999 64.0775 7.21999ZM68.59 9.44451C70.2551 10.3041 70.8648 10.6152 73.1765 11.8136C75.3943 12.9632 77.6318 14.1281 79.3459 15.0252C80.203 15.4738 80.9286 15.8559 81.4541 16.1357C81.7169 16.2756 81.9297 16.3893 82.0781 16.4706C82.2266 16.5519 82.4027 16.6688 82.2297 16.5517H82.2332V16.5552C82.7131 16.8791 83.03 17.4149 83.03 18.05V72.2C83.03 72.8862 82.6615 73.4572 82.1169 73.7688C82.2266 73.7061 81.7795 73.9502 81.2567 74.2236C80.734 74.4969 80.0161 74.8708 79.1662 75.3129C77.4663 76.197 75.2445 77.351 73.0425 78.4928C70.7989 79.6562 70.2338 79.9473 68.59 80.7984V9.44451ZM14.4893 23.5073C14.5031 23.5182 14.5353 23.5457 14.5528 23.5602C14.5841 23.586 14.6235 23.6193 14.6762 23.6624C14.7816 23.7487 14.9336 23.8711 15.1274 24.029C15.515 24.3449 16.0725 24.7997 16.7808 25.3757C18.1976 26.5277 20.2073 28.1608 22.6118 30.1139C27.421 34.0201 33.8122 39.2083 40.193 44.3882C52.6018 54.4615 64.3052 63.96 64.98 64.5076V82.1275C64.98 82.4757 64.7966 82.7518 64.5252 82.9031C64.522 82.9047 64.3997 82.9693 64.3983 82.9701C64.2988 83.0055 64.193 83.03 64.0775 83.03C63.8397 83.03 63.6481 82.9467 63.4887 82.8079C63.4651 82.7828 63.4462 82.7607 63.4112 82.7233C63.3031 82.6077 63.1431 82.4358 62.9388 82.2156C62.5301 81.7752 61.9406 81.1378 61.1937 80.3295C59.7 78.713 57.5829 76.4178 55.0525 73.6736C49.9917 68.1851 43.2736 60.8958 36.5618 53.6106C29.8501 46.3254 23.1446 39.0456 18.1064 33.5793C15.5873 30.8462 13.4853 28.5666 12.0075 26.9657C11.3687 26.2738 10.9055 25.7752 10.5162 25.3546C10.6804 25.2708 10.6734 25.2698 10.8406 25.1854C11.7738 24.7142 12.7352 24.2432 13.4917 23.9057C13.8699 23.7369 14.2017 23.6013 14.4224 23.5214C14.4507 23.5111 14.4616 23.5144 14.4893 23.5073ZM7.21999 27.1067C7.32217 27.2165 7.45498 27.359 7.63598 27.5544C8.03492 27.9852 8.6181 28.6125 9.35637 29.4123C10.1506 30.2727 11.5119 31.7505 12.635 32.9694V58.9163L7.22704 64.9694C7.22357 64.9751 7.22318 64.98 7.21999 64.98V27.1067ZM64.98 30.9423V59.8576C63.0535 58.2942 55.8859 52.4758 47.4553 45.6326L64.98 30.9423ZM16.245 36.8861C18.534 39.3698 21.6333 42.7358 24.4027 45.7419L16.245 54.8727V36.8861ZM26.8599 48.4071C28.6401 50.3394 30.0974 51.9243 31.94 53.9244C30.8171 54.8645 27.8775 57.3258 23.8069 60.7319C21.4144 62.7339 19.0203 64.7363 17.218 66.2421C16.3168 66.995 15.5652 67.6237 15.0358 68.0647C14.7711 68.2852 14.561 68.4582 14.4188 68.5759L14.4153 68.5794C14.4723 68.601 13.8406 68.3064 13.1462 67.9625C12.4385 67.612 11.5499 67.1695 10.6819 66.7321C10.615 66.6984 10.6181 66.6987 10.5515 66.6651L26.8599 48.4071ZM14.4576 68.5794L15.2896 70.0671L14.4365 68.5935L14.44 68.59C14.4426 68.5883 14.4576 68.5794 14.4576 68.5794Z" fill="black"/>
</svg>
