<svg width="37" height="37" viewBox="0 0 37 37" fill="none" xmlns="http://www.w3.org/2000/svg">
<g clip-path="url(#clip0_303_96)">
<path d="M23.4574 22.9462C23.2376 22.8743 21.848 22.2479 22.7163 19.6084H22.7039C24.9673 17.2773 26.697 13.5261 26.697 9.83302C26.697 4.15443 22.921 1.17757 18.5324 1.17757C14.1411 1.17757 10.3858 4.15305 10.3858 9.83302C10.3858 13.5413 12.1058 17.3077 14.383 19.6333C15.2707 21.9617 13.6834 22.8259 13.3516 22.9475C8.75562 24.6095 3.36325 27.6389 3.36325 30.6296V31.7509C3.36325 35.8256 11.2638 36.752 18.5753 36.752C25.8978 36.752 33.6988 35.8256 33.6988 31.7509V30.6296C33.6988 27.549 28.2802 24.5431 23.4574 22.9462Z" fill="#F8FAFF"/>
</g>
<defs>
<clipPath id="clip0_303_96">
<rect width="35.9492" height="35.9492" fill="white" transform="translate(0.556458 0.961868)"/>
</clipPath>
</defs>
</svg>
