<svg width="24" height="24" viewBox="0 0 24 24" fill="none" xmlns="http://www.w3.org/2000/svg">
<path d="M10.7859 12L4.63359 4.66641C4.53046 4.54453 4.61718 4.35938 4.77656 4.35938H6.64687C6.75703 4.35938 6.8625 4.40859 6.93515 4.49297L12.0094 10.5422L17.0836 4.49297C17.1539 4.40859 17.2594 4.35938 17.3719 4.35938H19.2422C19.4016 4.35938 19.4883 4.54453 19.3852 4.66641L13.2328 12L19.3852 19.3336C19.4083 19.3608 19.4231 19.394 19.4279 19.4293C19.4326 19.4647 19.4272 19.5006 19.4121 19.533C19.3971 19.5653 19.3731 19.5926 19.3429 19.6117C19.3128 19.6308 19.2778 19.6408 19.2422 19.6406H17.3719C17.2617 19.6406 17.1562 19.5914 17.0836 19.507L12.0094 13.4578L6.93515 19.507C6.86484 19.5914 6.75937 19.6406 6.64687 19.6406H4.77656C4.61718 19.6406 4.53046 19.4555 4.63359 19.3336L10.7859 12Z" fill="#0C152D"/>
</svg>
