<svg width="156" height="123" viewBox="0 0 156 123" fill="none" xmlns="http://www.w3.org/2000/svg">
<path d="M74.894 63.7436V62.6902C76.9263 63.1379 78.2688 65.0181 80.3747 65.3236C81.7489 66.972 84.134 67.1458 85.4871 68.8206C85.7714 69.1682 86.1609 68.8891 86.461 69.0155C87.8773 69.6159 89.52 69.9688 90.6203 70.9378C91.6365 71.8332 92.521 72.8444 93.7793 73.429C93.6424 74.5719 94.8322 74.6403 95.285 74.7193C96.8644 74.9827 97.849 76.6101 99.5338 76.5469C100.232 77.2591 101.109 77.7718 102.072 78.0321C102.129 79.5489 103.614 78.8905 104.335 79.4804C106.041 80.8655 108.358 81.2553 109.974 82.7299C110.895 82.3244 112.217 81.9294 112.464 82.2033C113.607 83.3619 114.765 82.5983 115.676 82.0716C116.587 81.5449 117.255 81.4659 118.019 81.9347C118.221 82.0875 118.462 82.18 118.715 82.2014C118.967 82.2228 119.221 82.1723 119.446 82.0558C121.051 81.1289 122.789 81.0025 124.558 81.1499L125.716 80.0492C126.995 80.3441 127.954 79.6121 128.965 78.9959C130.691 79.0696 132.318 78.8063 133.513 77.4738C136.925 77.2473 139.831 75.7727 142.759 74.2664C142.759 74.6298 142.916 74.7931 143.285 74.7931C143.095 75.641 141.874 75.3197 141.706 76.373C141.948 76.7628 141.395 77.4264 141.927 77.9215C144.206 79.5015 146.344 81.2395 148.74 82.514C150.43 83.4146 150.535 84.6207 150.703 86.2007C150.793 87.0802 150.103 87.5647 150.108 88.3547C150.108 90.9881 149.582 93.5108 149.055 96.0546C148.861 97.0131 148.413 97.919 148.571 98.8565C146.928 99.9835 145.144 100.637 143.833 101.737C142.316 102.996 140.547 103.67 138.926 104.592C137.404 105.45 135.54 105.74 133.945 106.914C133.52 106.802 133.073 106.797 132.645 106.899C132.217 107.001 131.821 107.207 131.492 107.499C129.686 109.195 127.28 109.184 125.174 109.985C124.242 110.276 123.343 110.666 122.494 111.149C121.493 111.852 120.383 112.386 119.209 112.729C117.729 113.113 116.197 113.45 114.865 114.272C112.286 115.837 109.289 116.572 106.278 116.379C104.309 116.3 102.34 116.495 100.882 114.799C100.688 114.646 100.453 114.555 100.208 114.535C98.4195 114.119 96.8361 113.084 95.7378 111.612C94.7164 111.791 94.1057 111.086 93.3423 110.812C91.8681 110.285 90.7467 109.037 89.2936 108.552C88.6575 108.383 88.0627 108.086 87.5456 107.678C86.6506 106.904 85.7713 106.098 84.8657 105.356C83.8751 104.485 82.7719 103.751 81.5857 103.175C81.1873 102.961 80.8369 102.667 80.5562 102.312C80.2756 101.957 80.0705 101.548 79.9537 101.111C79.106 101.084 78.3742 101.158 77.6897 100.584C76.3208 99.5306 74.7097 98.7669 73.4251 97.6346C72.4037 96.7287 70.8821 96.1336 70.3662 95.0276C69.608 93.4055 68.4446 92.2731 67.2968 91.0513C67.2002 90.9205 67.1221 90.7769 67.0651 90.6247C66.8861 90.098 67.7021 90.0295 67.5915 89.4555C67.2407 89.0305 67.0152 88.5162 66.9399 87.9702C66.8645 87.4242 66.9426 86.8681 67.1652 86.3639C67.626 85.1708 67.7605 83.8764 67.5548 82.6141C67.3863 81.1868 68.1812 79.9807 68.1286 78.6219C68.0338 75.9043 68.0285 73.2025 69.1816 70.6534C69.2184 70.5797 69.1816 70.4796 69.1816 70.2953C70.761 68.4625 73.6673 68.373 74.9729 65.8292L74.894 63.7436ZM89.2409 89.5029C90.9941 89.5292 91.7153 91.1619 93.1527 91.7043C94.4899 92.231 95.7114 93.1474 96.9434 93.9532C98.1754 94.759 99.2599 95.7439 100.629 96.3917C101.879 97.0484 103.096 97.7691 104.272 98.551C104.841 99.6043 103.677 100.068 103.888 100.853C104.109 101.121 104.467 101.29 104.414 101.711C103.63 102.875 103.704 104.397 102.709 105.398L103.451 106.193C102.645 107.062 102.756 108.2 102.861 109.279C102.972 110.438 101.629 111.439 102.545 112.639C102.845 112.508 102.951 112.055 103.372 112.113C103.898 111.997 103.941 112.818 104.567 112.608C104.957 112.434 105.446 112.139 105.441 111.591C105.441 110.57 105.783 109.622 105.925 108.647C106.089 107.52 107.163 106.325 105.994 105.145C105.974 105.106 105.964 105.062 105.964 105.018C105.964 104.975 105.974 104.931 105.994 104.892C106.894 103.407 106.325 101.732 106.605 100.063L108.81 99.9572C108.911 99.7676 109.163 99.2989 109.337 98.9407C111.443 99.1303 113.091 98.3403 114.807 97.3607H117.292C118.103 96.4338 119.514 96.655 120.33 95.8545C121.273 94.9381 122.531 95.2593 123.594 94.8011C124.121 94.5747 124.853 94.4904 125.442 94.1902C126.627 93.5845 127.948 93.4739 129.212 93.1369C131.118 92.6523 133.061 92.2942 134.951 91.7465C136.672 91.2824 138.352 90.6764 139.974 89.9347C141.585 89.1553 143.338 88.8129 144.954 87.9703C146.065 87.3909 147.197 86.9538 147.966 86.1164V83.7095C147.281 83.7622 146.57 83.6095 146.133 83.8886C144.554 84.8998 142.627 85.1737 141.037 86.2217C140.052 86.8801 138.778 87.0855 137.667 87.5753C136.557 88.0651 135.035 87.9703 134.05 88.9973C132.171 88.834 130.486 89.6714 128.707 90.0506C126.17 90.6384 123.683 91.422 121.267 92.3943C119.83 92.9209 118.356 93.416 116.987 94.0954C116.218 94.4799 115.407 94.2323 114.591 94.7011C112.633 95.7913 110.427 96.4496 108.626 97.4239C107.126 96.6497 106.157 95.5016 104.572 95.154C103.972 95.0042 103.422 94.6998 102.975 94.271C102.529 93.8423 102.203 93.3042 102.029 92.7103C101.571 92.6049 101.176 92.7419 100.739 92.4785C98.2281 90.9512 95.6535 89.5292 93.1527 87.9808C91.8312 87.1645 90.3465 86.5061 89.204 85.5213C87.7181 84.2612 86.1472 83.1051 84.5025 82.0611C81.6278 80.1914 78.8322 78.1901 75.6627 76.7944C74.8098 76.4152 73.5936 76.5258 73.0302 75.3935C72.9355 75.1986 72.2352 75.2197 71.8351 75.4461C71.7437 75.6227 71.696 75.8187 71.696 76.0176C71.696 76.2164 71.7437 76.4124 71.8351 76.589C72.1562 77.8425 73.3514 77.9373 74.1885 78.4481C75.9206 79.5015 78.0108 80.1071 79.4903 81.4185C81.154 82.8932 83.1231 84.0519 84.5235 85.8215H85.6871C86.4242 87.3593 88.7144 87.3646 89.2409 89.5029Z" fill="#BEADD4"/>
<path d="M90.1517 29.5524C90.1517 29.4629 90.1517 29.3049 90.1517 29.2996C91.8752 28.8293 93.6931 28.8293 95.4166 29.2996C96.8171 29.7051 98.207 30.1581 99.6022 30.5847C100.524 30.9586 101.097 31.7591 101.656 32.4859C101.861 32.7493 101.919 33.3497 102.282 33.4971C103.962 34.1713 104.793 35.7934 106.241 36.8941C107.142 36.6413 107.715 37.2944 108.221 37.9106C109.958 38.1792 111.722 37.4893 113.307 38.4794C114.528 37.5525 115.939 38.1002 117.276 37.9527C118.687 37.8 120.02 37.0785 121.404 37.4577C122.684 36.141 124.258 36.378 125.769 36.378C126.295 35.0508 127.727 35.5195 128.538 34.798C129.444 35.6723 130.697 35.4774 131.776 35.8145C132.445 35.9203 133.126 35.9309 133.798 35.8461C133.608 36.694 132.387 36.3727 132.218 37.3155C132.587 39.1219 132.587 39.1219 135.446 41.9817C136.004 42.3293 136.42 42.0397 136.857 42.3135C138.268 43.1983 140.016 43.6144 140.837 45.2734C142.695 45.9107 144.022 47.3801 145.639 48.3228C146.892 49.0654 147.465 50.6349 149.003 50.7665C149.35 51.5144 148.476 52.1359 148.776 52.6099C149.187 53.2998 149.245 54.2162 148.976 54.5691C148.087 55.7435 149.129 57.0286 148.545 58.182C148.452 58.3793 148.415 58.598 148.436 58.8149C148.457 59.0318 148.537 59.2389 148.666 59.4144C149.377 60.3361 148.898 61.4157 149.04 62.4164C147.955 63.317 148.803 64.5599 148.429 65.5764C148.053 66.5359 147.41 67.3675 146.576 67.9727H144.607C143.385 68.9681 141.737 68.9945 140.647 70.0794C138.673 69.9635 137.246 71.1749 135.635 72.1071C134.056 72.1755 134.056 72.2177 131.95 73.1604C131.571 73.3289 131.176 73.6871 130.897 73.6871C128.68 73.6871 126.906 75.2144 124.726 75.3935C124.168 75.4356 123.515 75.878 122.831 75.8306C122.251 75.7713 121.664 75.8507 121.121 76.0622C120.577 76.2737 120.091 76.6113 119.704 77.0472C117.645 76.2256 115.534 77.7371 113.249 77.3369C113.444 76.2835 113.122 75.4356 113.712 74.4771C114.081 73.8767 114.239 72.6232 113.517 72.0491C114.449 68.5942 114.302 65.0234 115.729 61.6317C118.277 62.053 120.878 60.71 123.873 61.1735C124.095 60.7732 124.352 60.315 124.61 59.8568C126.811 60.8364 128.296 59.0194 130.144 58.9193C131.197 58.8614 132.176 57.9661 133.356 57.3657H135.698L136.688 56.3755H139.321L140.447 55.3222C142.743 55.7225 143.896 53.4631 145.86 53.0997C145.991 52.0463 146.128 50.993 144.891 50.5611C143.059 51.0351 141.242 51.3037 139.626 51.9989C138.01 52.6941 136.393 53.126 134.798 53.6474C133.106 54.2577 131.373 54.7487 129.612 55.1168C127.848 55.4275 126.29 56.523 124.289 56.4387L123.647 57.4394C122.807 57.4958 121.965 57.4958 121.125 57.4394C120.299 57.3288 119.646 58.0293 118.982 57.9345C117.798 57.7712 116.876 58.656 115.776 58.5033C114.544 58.3295 109.379 55.7119 107.984 55.1168C107.01 54.7007 106.505 53.2787 105.215 53.8212L103.009 51.6145C102.298 52.1043 101.782 51.4196 101.234 51.1247C98.7862 49.808 96.9434 47.4643 94.0582 46.8745C93.5844 45.3787 92.0682 45.4525 91.0099 44.8363C89.6727 44.0568 87.972 43.5143 87.1349 42.3609C86.2978 41.2075 85.208 41.2181 84.2814 40.8968C83.0757 40.4544 82.7229 38.8744 81.3435 39.0324C80.7591 39.0956 80.5853 38.353 79.9799 38.5057C79.3744 38.6585 78.9269 38.2003 78.6742 37.6578C81.1276 36.3359 84.0286 36.2569 86.4399 34.8349C87.9141 34.9771 89.1251 34.1081 90.4624 33.7499C91.4946 33.3958 92.4993 32.9663 93.4686 32.4649C92.8474 31.7381 94.0635 31.6854 93.8424 31.0797L93.0527 29.5735L90.1517 29.5524Z" fill="#60B2E4"/>
<path d="M90.1514 29.5524H93.0419L93.8316 31.0587C94.0527 31.6644 92.8366 31.717 93.4578 32.4438C92.4885 32.9452 91.4838 33.3747 90.4516 33.7289C89.1143 34.087 87.9033 34.956 86.4291 34.8138C84.0178 36.2358 81.1168 36.3148 78.6634 37.6368C78.9214 38.1634 79.2846 38.6322 79.9691 38.4847C80.6535 38.3372 80.7483 39.0956 81.3327 39.0114C82.7227 38.8692 83.0754 40.4334 84.2495 40.8442C85.1761 41.1654 86.2765 41.1707 87.1031 42.3083C87.9296 43.4459 89.6408 44.0042 90.9781 44.7836C92.0311 45.3998 93.5526 45.3103 94.0265 46.8218C96.9116 47.4117 98.7648 49.7554 101.202 51.072C101.729 51.367 102.256 52.0516 102.977 51.5618L105.183 53.7686C106.473 53.2419 106.978 54.6481 107.952 55.0642C109.347 55.6593 114.512 58.2768 115.744 58.4506C116.845 58.6034 117.766 57.7186 118.95 57.8818C119.614 57.9766 120.267 57.2762 121.093 57.3868C121.933 57.4431 122.775 57.4431 123.615 57.3868L124.257 56.3861C126.258 56.4704 127.817 55.3749 129.58 55.0642C131.341 54.696 133.074 54.205 134.766 53.5948C136.346 53.0681 138.015 52.6099 139.594 51.9463C141.174 51.2827 143.048 50.9825 144.859 50.5085C146.096 50.9562 145.959 51.9779 145.828 53.047C143.864 53.4104 142.711 55.6804 140.415 55.2696L139.289 56.3229H136.656L135.666 57.313H133.324C132.144 57.9134 131.149 58.8088 130.112 58.8667C128.238 58.9668 126.779 60.7838 124.579 59.8042C124.321 60.2624 124.052 60.7206 123.842 61.1208C120.846 60.6574 118.245 62.0004 115.697 61.579C114.27 64.9708 114.417 68.5416 113.486 71.9965C114.186 72.5706 114.049 73.824 113.68 74.4244C113.091 75.383 113.412 76.2467 113.217 77.2842C115.502 77.6845 117.613 76.173 119.672 76.9946C120.06 76.5587 120.545 76.2211 121.089 76.0096C121.633 75.7981 122.219 75.7187 122.799 75.778C123.484 75.8254 124.136 75.383 124.695 75.3408C126.874 75.1618 128.648 73.6239 130.865 73.6344C131.16 73.6344 131.555 73.2658 131.918 73.1078C134.024 72.144 134.024 72.1018 135.603 72.0544C137.214 71.1222 138.641 69.9109 140.616 70.0268C141.705 68.9734 143.353 68.9418 144.575 67.9201H146.628C147.462 67.3149 148.105 66.4833 148.481 65.5238C148.855 64.5178 148.007 63.2749 149.092 62.3638C148.95 61.3631 149.429 60.2834 148.718 59.3618C148.589 59.1862 148.51 58.9791 148.488 58.7622C148.467 58.5453 148.505 58.3267 148.597 58.1294C149.182 56.976 148.139 55.6909 149.029 54.5164C149.297 54.1636 149.239 53.2472 148.829 52.5572C148.55 52.0832 149.403 51.4618 149.055 50.7139C147.518 50.5822 146.949 49.0128 145.691 48.2702C144.075 47.3222 142.748 45.858 140.889 45.2208C140.057 43.5618 138.32 43.1457 136.909 42.2609C136.472 41.987 136.056 42.2609 135.498 41.9291C132.639 39.0693 132.639 39.0693 132.271 37.2628C132.423 36.3254 133.645 36.6414 133.85 35.7934C135.308 36.3201 136.877 36.5782 138.062 37.6631C138.457 38.0265 138.878 37.8264 139.368 37.9212L141.058 39.7961C142.395 40.1964 143.606 40.1068 144.364 41.0917C145.122 42.0766 146.438 42.0186 147.118 43.014C147.607 43.8206 148.384 44.4116 149.292 44.6678C150.277 44.8363 150.556 46.2056 151.724 45.8528C152.13 45.7316 152.419 46.1688 152.509 46.4216C152.935 47.6224 153.994 48.2754 154.873 49.3182C154.262 50.0872 155.484 50.8192 154.952 51.8989C154.573 52.6784 154.862 53.7844 154.857 54.7429C154.857 55.7962 154.857 56.8496 154.857 57.9029C154.927 58.8301 154.766 59.7602 154.388 60.61C153.952 61.4579 154.789 62.685 153.773 63.5488C153.873 64.3493 154.715 64.9444 153.978 66.0662C153.241 67.188 153.078 68.8365 152.583 70.5429C152.183 70.9326 151.566 71.5541 150.919 72.1229C149.655 73.2605 149.013 73.3448 147.26 72.6127C146.733 73.3816 145.891 73.7345 144.97 74.2348H142.764C139.852 75.7411 136.93 77.2158 133.518 77.4422C132.323 78.7747 130.696 79.0222 128.97 78.9643C127.959 79.5594 127.001 80.2915 125.721 80.0176L124.563 81.1184C122.794 80.9814 121.056 81.1184 119.451 82.0242C119.226 82.1408 118.972 82.1913 118.72 82.1698C118.467 82.1484 118.226 82.0559 118.024 81.9031C117.255 81.4344 116.55 81.5397 115.681 82.04C114.812 82.5404 113.612 83.3304 112.469 82.1717C112.222 81.9189 110.89 82.3139 109.979 82.6984C108.363 81.2237 106.046 80.834 104.34 79.4488C103.619 78.859 102.134 79.5173 102.076 78.0005C101.113 77.7403 100.237 77.2275 99.5388 76.5153C97.854 76.5785 96.9063 74.9353 95.29 74.6878C94.8109 74.6088 93.6473 74.5403 93.7842 73.3974C92.5259 72.8128 91.6414 71.8174 90.6252 70.9063C89.5249 69.9372 87.8823 69.5844 86.466 68.984C86.1659 68.8576 85.7763 69.1367 85.492 68.7891C84.1389 67.1143 81.7539 66.9405 80.3798 65.292C78.2738 64.9918 76.9313 63.1116 74.899 62.6587C73.6039 61.8055 72.6931 60.4994 71.2663 59.7673C70.008 59.1195 69.5078 57.6132 69.2393 56.4546C68.9708 55.2959 68.4126 54.1478 68.6548 53.0418C68.897 51.9358 68.9391 50.7824 69.5814 49.7554C69.85 49.3235 69.5394 48.5546 70.3081 48.0858C69.4552 47.1958 69.5973 46.0898 69.6763 44.9943C69.9922 44.6836 70.3028 44.3728 70.7293 43.941C70.0343 42.0766 72.0982 40.6704 71.7823 38.7691C72.4299 37.7632 73.5091 37.1891 74.0619 36.0252C74.4357 35.2352 75.5203 34.561 76.4205 34.2872C78.6002 33.6288 80.6009 32.507 82.7911 31.9172C84.9813 31.3273 87.0505 30.8322 88.8985 29.5314C89.1512 29.3944 89.7145 29.5524 90.1514 29.5524ZM92.8313 64.9023C92.9354 65.5284 93.2357 66.1052 93.6891 66.5492C94.1424 66.9932 94.7253 67.2815 95.3532 67.3724C96.6326 67.5725 97.396 68.3888 98.3806 68.9945C99.3651 69.6002 100.007 70.7904 101.476 70.5745C101.95 71.1012 102.466 71.6963 102.782 72.0544C104.598 72.1756 105.715 73.25 106.773 73.982C107.831 74.7141 109.479 74.7773 109.969 76.6944C110.495 74.93 111.801 73.7608 110.827 71.986C110.667 71.6373 110.584 71.2583 110.584 70.8747C110.584 70.4911 110.667 70.1121 110.827 69.7634C111.059 69.2302 111.193 68.6592 111.222 68.0781C111.483 66.3693 111.852 64.6788 112.327 63.0168C112.501 62.4902 112.854 61.9951 112.775 61.2788L107.078 59.3512L105.225 57.4974C102.65 57.3341 101.329 54.8166 98.9438 54.2215C97.8269 53.8542 96.8663 53.1214 96.2166 52.1412H95.0795C94.8689 50.9193 94.1265 50.4032 92.9735 50.6033C92.9363 50.2884 92.8332 49.985 92.6708 49.7127C92.5084 49.4405 92.2904 49.2055 92.0311 49.0233H91.0044C89.6619 47.8646 88.7142 46.2056 86.7925 45.8633C85.8501 44.5414 84.16 44.5677 82.8964 43.8356C82.1172 43.3932 81.9909 42.7244 81.6434 42.3188C79.7586 41.9133 78.358 40.7388 76.2942 39.8224C76.7891 41.1444 76.2942 41.9291 76.0468 42.8034C75.9147 43.6753 75.9006 44.561 76.0047 45.4367C76.0047 46.3689 75.0728 47.1062 75.4782 48.1069C74.4832 48.6652 76.2048 49.8449 74.9517 50.3452L75.3045 50.7402C75.2623 51.7093 74.3198 52.1622 74.4357 53.2893C74.8516 53.816 74.8885 54.6481 75.1465 55.4486C76.7575 56.1333 77.8264 57.4921 79.2637 58.3453C80.701 59.1985 82.0857 60.2308 83.7494 60.8259C85.2499 61.3526 86.5187 62.4533 88.0718 63.0537C89.625 63.6541 90.9676 64.7706 92.8313 64.9023Z" fill="#212222"/>
<path d="M74.8939 63.7436V65.8503C73.5934 68.3941 70.682 68.4836 69.1025 70.3164C69.1025 70.5008 69.1341 70.6008 69.1025 70.6746C67.9547 73.2236 67.96 75.9412 68.0495 78.643C68.1022 80.0018 67.3071 81.2079 67.4756 82.6352C67.6813 83.8975 67.5468 85.1919 67.086 86.385C66.8634 86.8892 66.7854 87.4454 66.8607 87.9913C66.936 88.5373 67.1617 89.0516 67.5125 89.4766C67.6388 90.0506 66.8228 90.1086 66.986 90.6458C67.0431 90.798 67.121 90.9416 67.2176 91.0724C68.3654 92.2942 69.5289 93.4266 70.2871 95.0487C70.8136 96.1547 72.3246 96.7498 73.346 97.6557C74.6307 98.788 76.2416 99.5517 77.6105 100.605C78.316 101.132 79.0268 101.079 79.8745 101.132C79.9913 101.569 80.1965 101.978 80.4772 102.333C80.7578 102.688 81.1082 102.982 81.5066 103.196C82.6928 103.773 83.796 104.506 84.7866 105.377C85.6922 106.13 86.5714 106.925 87.4664 107.699C87.9835 108.107 88.5783 108.404 89.2144 108.573C90.6675 109.058 91.7889 110.296 93.2631 110.833C94.0265 111.112 94.6372 111.812 95.6586 111.633C96.7569 113.105 98.3403 114.14 100.129 114.556C100.374 114.576 100.609 114.667 100.802 114.82C102.261 116.531 104.23 116.337 106.199 116.4C109.209 116.593 112.207 115.858 114.786 114.293C116.118 113.471 117.65 113.134 119.13 112.75C120.304 112.407 121.414 111.873 122.415 111.17C123.264 110.687 124.163 110.297 125.095 110.006C127.201 109.205 129.628 109.216 131.413 107.52C131.742 107.228 132.138 107.022 132.566 106.92C132.994 106.818 133.441 106.823 133.866 106.936C135.445 105.761 137.325 105.471 138.847 104.613C140.468 103.691 142.237 103.033 143.754 101.758C145.086 100.658 146.87 100.005 148.492 98.8776C148.334 97.9401 148.781 97.0342 148.976 96.0757C149.503 93.5319 150.061 90.9881 150.029 88.3758C150.029 87.5858 150.714 87.1013 150.624 86.2218C150.456 84.6786 150.35 83.4462 148.66 82.5351C146.265 81.2606 144.127 79.512 141.848 77.9426C141.321 77.4528 141.848 76.7839 141.626 76.3942C141.8 75.3408 143.022 75.6726 143.206 74.8142H145.043C146.381 76.094 147.497 77.7793 149.74 77.4475C150.793 78.4008 151.661 79.5015 153.33 79.6542C154.278 79.7385 154.762 80.9656 155.273 82.2191C155.005 83.6253 155.842 85.4634 154.815 87.1592C155.973 88.5128 155.057 89.6082 154.399 90.7564C154.273 91.0702 154.224 91.4098 154.257 91.7465C154.257 92.4786 154.641 93.1369 154.304 93.9638C154.036 94.6221 154.252 95.4858 154.252 96.2811L153.415 96.4602C153.346 96.5866 153.188 96.7498 153.209 96.871C153.694 99.2094 152.414 101.084 151.54 103.022C151.377 103.386 150.987 103.654 151.077 104.076C150.213 104.281 149.64 105.129 148.739 104.745C147.655 105.964 146.342 106.959 144.875 107.673C143.222 108.547 141.474 109.253 139.905 110.343C138.489 111.349 136.477 111.328 135.061 112.603C134.703 112.924 133.877 112.65 133.34 112.85C132.287 113.25 131.281 113.809 130.244 114.261C129.207 114.714 128.138 115.167 127.148 115.705C125.498 116.565 123.788 117.304 122.031 117.917C120.351 118.517 118.75 119.317 117.003 119.76C116.355 119.923 115.423 120.097 115.286 121.008C113.375 121.324 111.364 120.566 109.79 122.167C108.063 122.061 106.257 122.451 104.525 121.64C104.056 121.419 103.756 121.861 103.519 122.072C101.371 121.019 99.3915 119.728 97.017 119.175C96.9696 119.312 96.859 119.618 96.7063 120.06C94.8741 120.06 93.6527 118.096 91.6836 118.512C90.8675 115.921 88.5247 115.399 86.6399 114.246C85.8607 113.761 84.992 113.387 84.4181 112.592C84.0215 112.039 83.4471 111.64 82.7912 111.46C81.4118 111.07 80.7537 109.722 79.6323 108.99C78.2529 108.105 76.6892 107.552 75.4204 106.404C74.2726 105.35 72.7037 104.766 71.598 103.691C70.782 102.896 70.0976 101.927 69.2763 101.1H68.2233L66.4279 99.3042C66.4279 99.0145 66.3806 98.5984 66.3542 98.1718C66.0173 97.7505 65.5434 98.0402 65.1275 97.9454C63.3421 96.4778 61.8734 94.6627 60.8103 92.6102C61.2104 90.788 61.479 89.0974 60.5997 87.4173C61.3895 86.1691 61.2735 84.8893 60.7681 83.3672C61.6789 82.8406 61.6368 81.5871 62.237 80.518C60.8892 79.333 62.0896 78.3534 62.5161 77.1947C62.2762 76.8774 62.1242 76.5025 62.0752 76.1077C62.0262 75.7129 62.082 75.3122 62.237 74.9458C62.8214 73.6134 62.7162 72.2756 62.6899 70.9326C62.6563 70.3402 62.774 69.7489 63.0319 69.2145C63.2898 68.6801 63.6795 68.2202 64.1641 67.878C65.2855 67.0774 66.6227 66.5929 67.7757 65.8398C69.0867 64.9918 70.6662 64.7022 71.9876 63.7331L74.8939 63.7436Z" fill="#212222"/>
<path d="M128.554 34.8138C127.743 35.5353 126.305 35.0666 125.784 36.3938C124.273 36.3938 122.699 36.1568 121.42 37.4735C120.035 37.0943 118.703 37.8158 117.292 37.9685C115.965 38.116 114.544 37.5683 113.322 38.4952C111.743 37.5051 109.974 38.195 108.236 37.9264C107.71 37.3102 107.183 36.6571 106.257 36.9099C104.809 35.8092 103.977 34.1871 102.298 33.5129C101.934 33.3655 101.876 32.7651 101.671 32.5017C101.113 31.7749 100.539 30.9744 99.6176 30.6005C98.1645 29.2575 97.6591 27.0297 95.5637 26.2871C94.7161 24.528 92.9733 23.2482 92.7522 21.1995C92.8417 20.9835 92.8628 20.7781 92.9734 20.6728C95.4005 18.7873 97.9856 17.1283 100.476 15.3271C102.35 15.3956 103.287 13.9473 104.567 12.7623C105.851 12.9361 106.709 11.8669 107.662 11.1507C108.615 10.4344 109.816 9.89721 110.853 9.24941C111.89 8.60161 112.464 7.57461 113.691 7.25861C114.917 6.94261 115.712 5.75234 116.692 4.84121H118.298C119.577 2.90834 122.32 2.73454 123.452 0.627872C125.163 0.801672 126.637 -0.425461 128.264 0.159139C130.818 1.62854 131.981 3.97221 132.355 6.78988C132.681 7.34814 133.366 7.34287 133.808 7.71681C133.808 8.24347 133.808 8.77014 133.808 9.29681C134.003 9.68127 134.424 9.51274 134.698 9.67074C135.177 12.5253 136.572 15.0427 137.72 17.9605C138.583 18.7979 139.731 19.8407 139.599 21.5839C139.586 21.7503 139.627 21.9164 139.715 22.0579C140.9 23.7485 141.295 25.7446 142.074 27.8513C140.91 30.611 138.173 31.6169 135.545 32.7282C135.114 32.9125 134.629 32.823 134.134 33.1495C132.992 33.7974 131.809 34.3692 130.591 34.8612L128.554 34.8138ZM134.471 24.7439C134.24 24.054 134.503 23.6063 134.092 23.2377C133.787 22.9585 133.292 22.5583 133.334 22.2686C133.503 20.973 132.444 20.1251 132.281 19.0191C132.071 17.655 131.312 16.7333 130.391 15.8591C130.272 15.7444 130.188 15.5983 130.149 15.4377C129.375 12.4199 127.68 9.80241 126.463 6.97421C126.394 6.75621 126.28 6.55508 126.129 6.38367C125.977 6.21227 125.792 6.07437 125.584 5.97881C124.005 7.27441 124.379 9.66547 122.71 10.9242C122.849 11.3645 122.873 11.8329 122.781 12.2854C122.689 12.7378 122.483 13.1593 122.183 13.5101C120.267 15.5589 120.13 18.5293 118.324 20.5991C117.95 22.6425 116.644 24.2857 115.886 26.1554C115.734 26.5188 115.528 26.8717 115.36 27.2509C114.954 28.2199 114.775 29.2469 114.144 30.1897C113.659 30.9165 112.938 32.0067 113.459 33.2707C115.233 33.0969 116.955 33.3339 118.761 32.7967C120.804 32.191 122.852 31.1219 125.189 31.8013L126.184 30.5425C127.458 30.8585 128.39 30.3161 129.449 29.5577C130.628 29.6156 131.991 29.6314 133.018 28.5043C133.713 28.8098 133.913 27.8618 134.64 27.9197C135.745 28.0093 135.977 27.1139 135.903 25.9289L134.471 24.7439ZM119.893 7.85374C119.25 9.05454 117.918 9.15987 117.15 10.1289C116.26 11.2455 115.186 12.1619 113.57 12.2777C112.993 12.3576 112.47 12.6554 112.106 13.1099C111.511 13.9736 110.432 14.2106 109.7 14.8531C108.737 15.7011 107.504 15.9644 106.441 16.5543C105.377 17.1441 104.224 18.0184 103.029 18.4081C101.976 18.7452 100.923 18.9348 100.202 19.7933C99.4808 20.6517 98.2119 20.815 97.1221 21.8262C98.6489 22.3107 99.3965 23.2693 100.17 24.2489C100.944 25.2285 102.145 25.7025 102.761 26.7769C102.761 27.1455 102.798 27.4773 102.813 27.7828C103.698 28.1831 104.472 28.6413 105.262 29.0415C106.051 29.4418 105.546 30.5373 106.652 30.6847C107.278 30.769 107.794 31.6643 108.347 32.1857C109.4 32.033 110.147 32.8177 111.422 33.2391C110.516 32.2542 112.164 32.1594 111.722 31.4115L111.237 30.8111C111.716 30.2581 112.18 29.8789 112.29 29.0679C112.454 27.779 112.878 26.5371 113.538 25.4181C114.3 24.2392 114.771 22.8962 114.912 21.4997C114.978 20.4263 115.372 19.3989 116.039 18.5556C116.467 17.9649 116.796 17.3086 117.013 16.6122C117.834 14.5055 117.934 12.1303 119.524 10.2922C119.851 9.98631 120.065 9.57934 120.131 9.13694C120.198 8.69453 120.114 8.24249 119.893 7.85374V7.85374Z" fill="#222222"/>
<path d="M35.465 22.3213C35.5545 20.9309 34.412 19.9197 33.8855 18.6347C33.7065 18.108 34.3699 17.9711 34.412 17.4602C34.4804 17.1179 34.1382 16.9335 33.8223 16.5859C34.6699 16.1962 35.5018 16.449 36.0809 16.4069C38.4133 17.6972 40.5824 18.8348 42.6884 20.0935C44.7944 21.3523 46.2 23.5695 48.6903 24.7703C50.1592 24.6702 50.6752 26.6926 52.2231 26.9349V29.2733C51.4544 30.6426 49.7538 30.8533 48.5113 31.796C47.5636 31.4116 46.7476 30.8375 45.9315 31.1377C43.7677 29.7736 42.2935 27.7091 39.9085 26.8612C39.5926 26.7453 39.3241 26.3345 39.103 25.9132C38.2974 24.4754 37.0813 23.4273 35.465 22.3213Z" fill="#F6B04E"/>
<path d="M20.6655 56.0543L22.2186 56.997V58.8246L20.5918 60.057C19.6863 60.0991 18.5437 60.8681 17.2486 60.6363C16.8274 61.4263 16.4746 60.6363 16.0903 60.6047C13.8211 60.5731 11.552 60.6047 9.27756 60.6047C7.69809 61.7318 6.3449 60.6732 4.94971 60.0781C4.3811 60.1413 3.98107 60.8944 3.34402 60.6047C2.24365 60.0781 0.848417 60.0359 0.011299 58.2136C-0.0992637 57.9134 0.632484 57.3499 0.858875 56.5388C1.12738 56.2808 1.79088 56.444 2.03306 55.8805C3.5125 55.8805 5.10771 55.5382 6.45025 55.9753C7.75452 56.3293 9.10817 56.4663 10.4569 56.3808C11.3519 56.3808 12.3732 56.8074 13.1314 55.891C13.2114 55.8448 13.3022 55.8205 13.3946 55.8205C13.487 55.8205 13.5778 55.8448 13.6579 55.891C15.8586 57.2551 18.0699 55.2327 20.6655 56.0543Z" fill="#F6B04F"/>
<path d="M11.6153 80.0756C10.8098 79.5489 10.6097 78.9906 10.7256 78.3218C11.5416 76.7892 13.2843 76.6364 14.6163 75.8991C15.6693 75.3198 16.8012 74.8774 17.8647 74.2664C18.9639 73.5889 20.1582 73.0794 21.408 72.7549C22.2082 72.5758 22.54 72.0544 23.0665 71.6542C23.6509 71.6858 24.2563 71.4856 24.8829 71.8227L24.9408 72.876C23.4614 74.2085 22.7558 76.431 20.9078 77.3211C19.2283 78.1216 17.8437 79.4594 15.9325 79.8596C14.4794 80.1914 13.0105 79.886 11.6153 80.0756Z" fill="#F6B14F"/>
<path d="M25.7781 38.5742C25.9729 38.8849 26.4836 39.0218 26.51 39.7908C25.2253 40.8441 23.6722 41.534 21.9032 40.9231C21.1977 40.6808 20.7606 40.565 20.0814 40.9231C19.4022 41.2812 18.7337 41.118 17.944 40.823C16.7383 40.3754 15.4747 39.7697 14.1427 40.112C13.0897 38.7585 10.5415 39.5854 10.4573 37.0995L11.605 36.1989C12.9002 35.5353 14.1584 36.1094 15.3483 36.9257C16.1749 36.1673 17.2752 36.6992 17.7386 37.01C18.681 37.642 19.5761 37.2628 20.4606 37.4629C21.3451 37.663 22.4086 37.7315 23.0562 38.1002C23.9933 38.6374 24.8883 38.2476 25.7781 38.5742Z" fill="#F6B252"/>
<path d="M36.1551 97.4608L37.2977 96.3759L38.14 97.2238C36.1656 100.7 33.4016 103.544 30.3848 106.367C29.5898 106.304 28.6684 106.288 28.0103 106.999C27.4312 106.504 26.852 106.193 27.0837 105.187C28.2051 104.06 28.5421 102.127 30.0531 100.932C31.2271 100.097 32.3472 99.1895 33.4068 98.214C33.7544 97.8521 34.1933 97.591 34.6772 97.4584C35.161 97.3258 35.6717 97.3266 36.1551 97.4608V97.4608Z" fill="#F6B150"/>
<path d="M89.2409 89.5029C88.746 87.3646 86.4504 87.3594 85.7555 85.8162H84.5919C83.1915 84.0308 81.2225 82.888 79.5588 81.4133C78.0794 80.1019 75.9892 79.5068 74.257 78.4429C73.4199 77.9162 72.2248 77.8372 71.9036 76.5838C71.8122 76.4072 71.7645 76.2112 71.7645 76.0123C71.7645 75.8135 71.8122 75.6175 71.9036 75.4409C72.3037 75.2144 73.004 75.1934 73.0987 75.3882C73.6252 76.5206 74.8572 76.41 75.7312 76.7892C78.8901 78.2006 81.6962 80.202 84.5709 82.0558C86.1971 83.0968 87.7504 84.2476 89.2198 85.5002C90.3623 86.4851 91.8523 87.1434 93.1685 87.9598C95.6693 89.5082 98.2439 90.9302 100.755 92.4575C101.192 92.7208 101.587 92.5839 102.045 92.6892C102.219 93.2832 102.545 93.8213 102.991 94.25C103.437 94.6788 103.988 94.9832 104.588 95.133C106.167 95.4806 107.142 96.6287 108.642 97.4029C110.443 96.4286 112.649 95.7702 114.607 94.68C115.444 94.2113 116.234 94.4588 117.003 94.0744C118.372 93.395 119.846 92.9157 121.283 92.3733C123.699 91.401 126.186 90.6174 128.722 90.0296C130.502 89.6556 132.187 88.8182 134.066 88.9762C135.051 87.9229 136.499 88.0809 137.683 87.5542C138.868 87.0276 140.068 86.859 141.053 86.2007C142.632 85.1474 144.549 84.8788 146.149 83.8676C146.586 83.5884 147.297 83.7412 147.981 83.6885V86.1744C147.213 87.0118 146.081 87.4489 144.97 88.0282C143.354 88.8709 141.6 89.2132 139.989 89.9927C138.368 90.7344 136.688 91.3404 134.967 91.8044C133.076 92.3311 131.134 92.7103 129.228 93.1948C127.964 93.5161 126.643 93.6267 125.458 94.2482C124.868 94.5484 124.158 94.6327 123.61 94.8591C122.557 95.3068 121.288 94.9855 120.346 95.9125C119.53 96.713 118.119 96.4918 117.308 97.4187H114.823C113.107 98.3773 111.475 99.1673 109.353 98.9987C109.169 99.3569 108.916 99.8256 108.826 100.015L106.62 100.121C106.341 101.785 106.91 103.465 106.01 104.95C105.99 104.989 105.98 105.033 105.98 105.076C105.98 105.12 105.99 105.164 106.01 105.203C107.178 106.383 106.104 107.578 105.941 108.705C105.799 109.68 105.446 110.628 105.457 111.649C105.457 112.176 104.972 112.492 104.583 112.666C103.956 112.876 103.898 112.055 103.388 112.171C102.967 112.092 102.861 112.545 102.561 112.697C101.645 111.497 102.987 110.496 102.877 109.337C102.772 108.284 102.661 107.12 103.467 106.251L102.724 105.456C103.719 104.444 103.646 102.922 104.425 101.769C104.504 101.348 104.146 101.179 103.925 100.911C103.714 100.126 104.878 99.6412 104.309 98.609C103.133 97.8271 101.916 97.1064 100.666 96.4496C99.3073 95.8018 98.2228 94.8117 96.9803 94.0112C95.7377 93.2107 94.5268 92.2679 93.1896 91.7623C91.6891 91.1619 90.9678 89.5292 89.2409 89.5029Z" fill="#232424"/>
<path d="M92.8314 64.9023C90.9676 64.7706 89.5986 63.633 88.0244 63.0274C86.4502 62.4217 85.2025 61.3368 83.702 60.7996C82.0383 60.2044 80.6799 59.1932 79.2163 58.319C77.7526 57.4447 76.7101 56.107 75.0991 55.4223C74.8411 54.6218 74.8043 53.7791 74.3884 53.263C74.2726 52.1359 75.2149 51.683 75.2571 50.7139L74.9043 50.3189C76.1469 49.7922 74.4252 48.6388 75.4308 48.0805C75.0307 47.0799 75.9573 46.3425 75.9573 45.4103C75.8532 44.5347 75.8674 43.6489 75.9995 42.777C76.2206 41.908 76.7418 41.118 76.2469 39.7961C78.3108 40.6861 79.7112 41.9027 81.596 42.2925C81.9435 42.698 82.0699 43.3458 82.8491 43.8093C84.1232 44.5413 85.8027 44.515 86.7451 45.8369C88.6773 46.1793 89.625 47.8383 90.957 48.997H91.9837C92.243 49.1792 92.461 49.4141 92.6234 49.6864C92.7858 49.9586 92.8889 50.2621 92.9261 50.577C94.1054 50.3768 94.8478 50.8929 95.0321 52.1148H96.1692C96.8189 53.095 97.7797 53.8278 98.8965 54.1952C101.282 54.7903 102.582 57.3078 105.178 57.471L107.031 59.3249L112.727 61.2525C112.806 61.9688 112.454 62.4533 112.28 62.9905C111.805 64.6525 111.435 66.343 111.174 68.0518C111.146 68.6328 111.012 69.2039 110.779 69.7371C110.619 70.0857 110.537 70.4648 110.537 70.8484C110.537 71.2319 110.619 71.611 110.779 71.9596C111.753 73.7345 110.464 74.9037 109.921 76.668C109.432 74.751 107.778 74.6772 106.725 73.9557C105.672 73.2342 104.551 72.1492 102.735 72.0281C102.419 71.67 101.903 71.0906 101.429 70.5482C99.96 70.7641 99.2861 69.5475 98.3332 68.9682C97.3802 68.3888 96.5852 67.5462 95.3058 67.346C94.6902 67.2476 94.1207 66.9591 93.677 66.5209C93.2333 66.0827 92.9377 65.5168 92.8314 64.9023V64.9023Z" fill="#60B2E4"/>
<path d="M134.471 24.744L135.904 25.929C135.977 27.114 135.746 28.0093 134.64 27.9198C133.913 27.8618 133.713 28.8098 133.018 28.5044C131.965 29.6209 130.628 29.6051 129.449 29.5577C128.396 30.3161 127.459 30.8586 126.185 30.5426L125.19 31.8013C122.852 31.1219 120.804 32.191 118.761 32.7967C116.955 33.3234 115.234 33.0969 113.459 33.2707C112.933 32.0067 113.659 30.9165 114.144 30.1897C114.776 29.247 114.955 28.22 115.36 27.2509C115.518 26.8717 115.723 26.5188 115.886 26.1554C116.645 24.2752 117.95 22.6426 118.324 20.5991C120.13 18.5293 120.267 15.5589 122.183 13.5102C122.483 13.1594 122.689 12.7379 122.781 12.2854C122.873 11.833 122.849 11.3645 122.71 10.9242C124.379 9.64969 124 7.27442 125.584 5.97882C125.792 6.07439 125.978 6.21228 126.129 6.38369C126.28 6.55509 126.394 6.75623 126.464 6.97422C127.664 9.80242 129.359 12.42 130.149 15.4378C130.188 15.5983 130.272 15.7444 130.391 15.8591C131.313 16.7439 132.071 17.6656 132.281 19.0191C132.455 20.1251 133.513 20.973 133.334 22.2686C133.292 22.5583 133.787 22.9586 134.092 23.2377C134.519 23.6011 134.24 24.054 134.471 24.744Z" fill="#CF4662"/>
<path d="M119.893 7.85376C120.117 8.24137 120.205 8.69347 120.141 9.13694C120.077 9.58041 119.865 9.9893 119.54 10.2975C117.961 12.1514 117.85 14.5108 117.029 16.6175C116.811 17.3138 116.482 17.9702 116.055 18.5609C115.387 19.4042 114.994 20.4315 114.928 21.505C114.787 22.9015 114.315 24.2445 113.554 25.4234C112.894 26.5424 112.469 27.7843 112.306 29.0732C112.18 29.8842 111.716 30.2634 111.253 30.8164L111.737 31.4168C112.18 32.1647 110.532 32.2595 111.437 33.2444C110.163 32.802 109.437 32.0172 108.363 32.191C107.81 31.6644 107.31 30.7743 106.667 30.69C105.562 30.5426 106.03 29.4366 105.277 29.0468C104.524 28.6571 103.698 28.1884 102.829 27.7881C102.829 27.4826 102.798 27.1508 102.777 26.7822C102.161 25.7288 100.944 25.2022 100.186 24.2542C99.4281 23.3062 98.6646 22.316 97.1378 21.8315C98.2277 20.8203 99.486 20.7097 100.218 19.7986C100.95 18.8874 101.997 18.7452 103.045 18.4134C104.24 18.0237 105.325 17.1863 106.457 16.5596C107.589 15.9328 108.752 15.7064 109.716 14.8584C110.447 14.2159 111.527 13.9789 112.122 13.1152C112.485 12.6607 113.009 12.3629 113.585 12.283C115.202 12.1672 116.276 11.2297 117.166 10.1342C117.918 9.15989 119.25 9.05456 119.893 7.85376Z" fill="#CF4662"/>
</svg>
