<svg width="28" height="28" viewBox="0 0 28 28" fill="none" xmlns="http://www.w3.org/2000/svg">
<path d="M14 1.12012C6.89434 1.12012 1.12 6.89447 1.12 14.0001C1.12 21.1058 6.89434 26.8801 14 26.8801C21.1056 26.8801 26.88 21.1058 26.88 14.0001C26.88 6.89447 21.1056 1.12012 14 1.12012ZM14 2.24012C20.5001 2.24012 25.76 7.50001 25.76 14.0001C25.76 14.0401 25.7571 14.0795 25.7567 14.1193C25.3985 14.0863 24.9847 14.0549 24.4584 14.0362C23.7144 14.0098 22.7765 14.0175 21.7131 14.0701C21.7526 13.7955 21.7802 13.517 21.7809 13.2312C21.8352 12.1825 21.483 11.2015 20.9103 10.335C21.0487 9.85688 21.211 9.24864 21.2516 8.55871C21.2978 7.77232 21.2299 6.90031 20.5986 6.31106L20.4367 6.16012H20.2158C18.7133 6.16012 17.6848 6.78912 17.0559 7.28777C16.1479 6.93629 15.1268 6.72012 14 6.72012C12.8668 6.72012 11.8359 6.93931 10.8905 7.28996C10.2619 6.79106 9.2326 6.16012 7.72843 6.16012H7.50859L7.34671 6.30996C6.73173 6.88102 6.67507 7.7291 6.71343 8.51168C6.74726 9.20176 6.90017 9.82932 7.03609 10.3306C6.45371 11.214 6.10421 12.2204 6.10421 13.2159C6.10421 13.5024 6.13086 13.7818 6.16984 14.057C5.15861 14.0101 4.25717 14.0011 3.54156 14.0264C3.01532 14.045 2.60144 14.0761 2.24328 14.1095C2.24294 14.0729 2.24 14.0368 2.24 14.0001C2.24 7.50001 7.49989 2.24012 14 2.24012ZM8.06203 7.3534C9.19187 7.46046 10.0419 7.96498 10.4355 8.31481L10.698 8.54668L11.0217 8.41434C11.9073 8.04967 12.8951 7.84012 14 7.84012C15.1049 7.84012 16.0929 8.05072 16.9116 8.40887L17.2397 8.55324L17.5077 8.31481C17.9013 7.96486 18.7528 7.46019 19.8833 7.3534C20.0336 7.60259 20.1642 7.95697 20.1327 8.49309C20.0949 9.13469 19.9233 9.83353 19.7936 10.2486L19.7094 10.5187L19.8767 10.7473C20.4308 11.5029 20.7133 12.3206 20.6653 13.1853L20.6642 13.2006V13.2159C20.6642 14.6134 20.161 15.7318 19.0892 16.5606C18.0175 17.3894 16.3255 17.9201 13.9442 17.9201C11.5629 17.9201 9.8699 17.3893 8.79812 16.5606C7.72634 15.7318 7.22421 14.6134 7.22421 13.2159C7.22421 12.3957 7.52041 11.4933 8.0675 10.7473L8.23156 10.5242L8.15281 10.2584C8.02304 9.81719 7.86398 9.10242 7.83234 8.45699C7.80603 7.92016 7.93308 7.58085 8.06203 7.3534ZM4.97546 14.5722C5.37121 14.5772 5.82481 14.5986 6.27921 14.6214C6.32263 14.796 6.37214 14.9677 6.43234 15.1354C4.58022 15.1745 3.19464 15.3607 2.34062 15.5204C2.30451 15.2402 2.27575 14.9577 2.25968 14.6717C2.89083 14.6118 3.78055 14.5569 4.97546 14.5722ZM23.0245 14.5809C24.2186 14.5657 25.108 14.6207 25.7392 14.6804C25.7232 14.9624 25.6949 15.2409 25.6594 15.5171C24.7748 15.3549 23.3518 15.1687 21.4517 15.1387C21.5107 14.9743 21.5598 14.8055 21.6027 14.6345C22.1039 14.6076 22.593 14.5864 23.0245 14.5809ZM6.67078 15.6911C7.00495 16.3607 7.48244 16.9586 8.11343 17.4465C8.97614 18.1136 10.0977 18.5797 11.4669 18.829C11.2877 19.0131 11.1248 19.2152 10.9802 19.4284L10.9462 19.3989C10.9493 19.3953 10.6679 19.5362 10.2473 19.5739C9.82682 19.6115 9.3081 19.6001 8.84843 19.6001C8.16243 19.6001 7.86027 19.276 7.37734 18.6857C7.10991 18.3253 6.78389 18.0334 6.46734 17.8118C6.14321 17.5849 5.8667 17.4248 5.52453 17.3678L5.47859 17.3601H5.43156C5.17022 17.3601 4.91735 17.379 4.68125 17.6489C4.56319 17.7838 4.48183 18.0336 4.53468 18.245C4.58754 18.4564 4.72128 18.5863 4.84093 18.6661C5.6063 19.1763 5.74156 20.1862 6.22125 21.0843C6.6692 21.9769 7.63597 22.4001 8.62421 22.4001H10.08V25.0897C6.14197 23.6996 3.17222 20.2747 2.42593 16.0739C3.28324 15.9124 4.71886 15.7183 6.67078 15.6911ZM21.2144 15.6954C23.2095 15.7125 24.6854 15.9064 25.5752 16.0706C24.8299 20.273 21.8591 23.6992 17.92 25.0897V22.1759C17.92 21.2885 17.6286 20.31 17.1216 19.494C16.9676 19.2463 16.7865 19.012 16.5845 18.8017C17.8811 18.5455 18.9461 18.0875 19.775 17.4465C20.4046 16.9597 20.881 16.3636 21.2144 15.6954ZM13.2716 19.0959H14.84C15.2952 19.0959 15.781 19.4587 16.17 20.0847C16.559 20.7106 16.8 21.5513 16.8 22.1759V25.4232C15.9025 25.6421 14.9653 25.7601 14 25.7601C13.0347 25.7601 12.0974 25.6421 11.2 25.4232V22.1759C11.2 21.5651 11.462 20.7265 11.877 20.0978C12.2921 19.4691 12.8164 19.0959 13.2716 19.0959ZM6.89281 19.7576C7.37764 20.2605 7.96461 20.7201 8.84843 20.7201C9.28477 20.7201 9.82939 20.7358 10.3469 20.6895C10.3487 20.6893 10.3505 20.6886 10.3523 20.6884C10.2842 20.8844 10.2333 21.0816 10.1905 21.2801H8.62421C7.93355 21.2801 7.44563 21.0306 7.22093 20.5812L7.21656 20.5736L7.21328 20.567C7.12121 20.396 7.00036 20.0541 6.89281 19.7576Z" fill="#F8FAFF"/>
</svg>
