<svg width="37" height="37" viewBox="0 0 37 37" fill="none" xmlns="http://www.w3.org/2000/svg">
<g clip-path="url(#clip0_303_81)">
<path d="M5.10281 6.49252C2.81313 6.49252 0.954834 8.35082 0.954834 10.6405V27.2324C0.954834 29.5221 2.81313 31.3804 5.10281 31.3804H32.756C35.0457 31.3804 36.904 29.5221 36.904 27.2324V10.6405C36.904 8.35082 35.0457 6.49252 32.756 6.49252H5.10281ZM5.10281 9.25784H32.756C33.5179 9.25784 34.1387 9.87866 34.1387 10.6405V11.3318L18.9294 19.5421L3.72015 11.3318V10.6405C3.72015 9.87866 4.34097 9.25784 5.10281 9.25784ZM3.72015 11.7204L12.7503 18.7636L3.89299 27.838L14.6957 20.1463L18.9294 22.8687L23.1645 20.1463L33.9658 27.838L25.1085 18.7636L34.1387 11.7204V27.2324C34.131 27.4453 34.0717 27.6532 33.9658 27.838C33.7377 28.2874 33.2939 28.6151 32.756 28.6151H5.10281C4.56496 28.6151 4.12112 28.2874 3.89299 27.8366C3.78733 27.6522 3.72802 27.4448 3.72015 27.2324V11.7204Z" fill="#F8FAFF"/>
</g>
<defs>
<clipPath id="clip0_303_81">
<rect width="35.9492" height="35.9492" fill="white" transform="translate(0.954834 0.961868)"/>
</clipPath>
</defs>
</svg>
