<svg width="28" height="26" viewBox="0 0 28 26" fill="none" xmlns="http://www.w3.org/2000/svg">
<g clip-path="url(#clip0_433_307)">
<path d="M27.3164 8.23915L20.3165 1.2407C18.8575 -0.218311 16.3333 0.803446 16.3333 2.89056V5.67102C14.2698 5.76241 12.2485 5.98943 10.4631 6.54554C8.7534 7.07783 7.39715 7.88623 6.43271 8.9479C5.26069 10.239 4.66667 11.8626 4.66667 13.775C4.66667 16.7741 6.27949 19.2415 8.79229 20.8119C10.6174 21.9547 12.9363 20.1969 12.2447 18.1023C11.4905 15.8118 11.4107 14.6547 16.3333 14.2737V16.889C16.3333 18.9789 18.8596 19.9959 20.3165 18.5389L27.3164 11.5389C28.2279 10.6279 28.2279 9.15012 27.3164 8.23915ZM18.6667 16.889V11.8412C12.4109 11.9347 8.09336 12.9685 10.029 18.8335C8.59396 17.9366 7 16.3096 7 13.775C7 8.46013 13.2776 7.99283 18.6667 7.94894V2.88901L25.6667 9.88901L18.6667 16.889ZM19.8693 20.9963C20.2285 20.8937 20.5717 20.7415 20.8889 20.5441C21.2766 20.3034 21.7778 20.5842 21.7778 21.0406V23.1112C21.7778 24.3999 20.7331 25.4446 19.4444 25.4446H2.33333C1.04465 25.4446 0 24.3999 0 23.1112V6.00012C0 4.71144 1.04465 3.66679 2.33333 3.66679H8.75C9.07215 3.66679 9.33333 3.92797 9.33333 4.25012V4.46819C9.33333 4.70721 9.18813 4.92363 8.96539 5.0103C8.29933 5.26945 7.68226 5.57113 7.11574 5.91374C7.02378 5.96986 6.9182 5.99974 6.81046 6.00012H2.625C2.54765 6.00012 2.47346 6.03085 2.41876 6.08555C2.36406 6.14025 2.33333 6.21443 2.33333 6.29179V22.8196C2.33333 22.8969 2.36406 22.9711 2.41876 23.0258C2.47346 23.0805 2.54765 23.1112 2.625 23.1112H19.1528C19.2301 23.1112 19.3043 23.0805 19.359 23.0258C19.4137 22.9711 19.4444 22.8969 19.4444 22.8196V21.5573C19.4444 21.2963 19.6184 21.0683 19.8693 20.9963Z" fill="#F8FAFF"/>
</g>
<defs>
<clipPath id="clip0_433_307">
<rect width="28" height="24.8889" fill="white" transform="translate(0 0.555664)"/>
</clipPath>
</defs>
</svg>
