<svg width="41" height="41" viewBox="0 0 41 41" fill="none" xmlns="http://www.w3.org/2000/svg">
<path d="M35.2184 8.24022L32.4569 6.36483C32.0902 6.11806 31.641 6.026 31.2068 6.10869C30.7726 6.19137 30.3887 6.4421 30.1384 6.80637L16.6199 26.7433L10.4061 20.5294C10.0922 20.2189 9.66842 20.0448 9.22686 20.0448C8.78531 20.0448 8.36157 20.2189 8.04763 20.5294L5.68917 22.8925C5.53408 23.0474 5.41105 23.2314 5.3271 23.4338C5.24316 23.6363 5.19995 23.8533 5.19995 24.0725C5.19995 24.2917 5.24316 24.5087 5.3271 24.7112C5.41105 24.9137 5.53408 25.0976 5.68917 25.2525L15.2415 34.8095C15.7784 35.3433 16.6184 35.7556 17.3753 35.7556C18.1322 35.7556 18.8953 35.2787 19.3861 34.5648L35.663 10.5556C35.9105 10.1894 36.0027 9.74004 35.9194 9.30599C35.836 8.87194 35.5839 8.48866 35.2184 8.24022Z" fill="#F8FAFF"/>
</svg>
