<svg width="28" height="28" viewBox="0 0 28 28" fill="none" xmlns="http://www.w3.org/2000/svg">
<path d="M24.8582 5.72305L23.316 6.92891C21.2133 4.24102 17.943 2.51562 14.2707 2.51562C7.9297 2.51562 2.79728 7.64258 2.78907 13.9863C2.78087 20.3355 7.92423 25.4844 14.2707 25.4844C19.2281 25.4844 23.4528 22.3398 25.0606 17.9348C25.1016 17.8199 25.0414 17.6914 24.9266 17.6531L23.3762 17.1199C23.3221 17.1014 23.263 17.1048 23.2114 17.1293C23.1598 17.1538 23.1198 17.1976 23.1 17.2512C23.0508 17.3879 22.9961 17.5246 22.9387 17.6586C22.4656 18.7797 21.7875 19.7859 20.9235 20.65C20.0664 21.5087 19.0516 22.1939 17.9348 22.668C16.7781 23.1574 15.5449 23.4062 14.2762 23.4062C13.0047 23.4062 11.7742 23.1574 10.6176 22.668C9.49971 22.1959 8.48456 21.5105 7.62892 20.65C6.7695 19.793 6.08504 18.777 5.61368 17.6586C5.12423 16.4992 4.8754 15.2687 4.8754 13.9973C4.8754 12.7258 5.12423 11.4953 5.61368 10.3359C6.08673 9.21484 6.76485 8.20859 7.62892 7.34453C8.49298 6.48047 9.49923 5.80234 10.6176 5.32656C11.7742 4.83711 13.0074 4.58828 14.2762 4.58828C15.5477 4.58828 16.7781 4.83711 17.9348 5.32656C19.0527 5.79864 20.0678 6.48407 20.9235 7.34453C21.1942 7.61523 21.4485 7.90234 21.6836 8.20312L20.0375 9.48828C20.0049 9.51348 19.9801 9.54735 19.966 9.58601C19.9518 9.62468 19.9488 9.66655 19.9574 9.70683C19.966 9.7471 19.9857 9.78414 20.0144 9.81368C20.0431 9.84323 20.0795 9.86407 20.1195 9.87383L24.9211 11.0496C25.0578 11.0824 25.1918 10.9785 25.1918 10.8391L25.2137 5.89258C25.211 5.71211 25.0004 5.61094 24.8582 5.72305V5.72305Z" fill="#DEFFE1"/>
</svg>
