<svg width="90" height="90" viewBox="0 0 90 90" fill="none" xmlns="http://www.w3.org/2000/svg">
<path d="M45.0002 3.59998C43.7135 3.59998 42.4338 3.92341 41.2807 4.57029L10.9619 21.607C8.65566 22.9078 7.2002 25.3336 7.2002 27.9633V62.0367C7.2002 64.6734 8.65566 67.0992 10.9619 68.4L41.2807 85.4297C43.5869 86.7304 46.4135 86.7304 48.7197 85.4297L79.0385 68.4C81.3518 67.0992 82.8002 64.6664 82.8002 62.0367V27.9633C82.8002 25.3336 81.3447 22.9078 79.0385 21.607L48.7197 4.57029C47.5666 3.92341 46.2869 3.59998 45.0002 3.59998ZM45.0002 7.19998C45.6752 7.19998 46.3572 7.36873 46.9619 7.70623L77.2807 24.7429C78.483 25.425 79.2002 26.6484 79.2002 27.9633V43.2H75.6002V39.6H72.0002V43.2H68.4002V46.8H72.0002V50.4H75.6002V46.8H79.2002V62.0367C79.2002 63.3515 78.483 64.575 77.2736 65.257L46.9619 82.2937C45.7525 82.9687 44.2479 82.9687 43.0385 82.2937L12.7268 65.257C11.5174 64.575 10.8002 63.3586 10.8002 62.0367V27.9633C10.8002 26.6484 11.5174 25.425 12.7268 24.7429L43.0385 7.70623C43.6432 7.36873 44.3252 7.19998 45.0002 7.19998ZM45.0002 21.6C32.1119 21.6 21.6002 32.1117 21.6002 45C21.6002 57.8883 32.1119 68.4 45.0002 68.4C52.3619 68.4 59.1963 64.9687 63.6119 59.1539L64.8424 57.5297L53.9439 51.2156L52.9596 52.2844C50.9275 54.5062 48.0447 55.8 45.0002 55.8C39.0307 55.8 34.2002 50.9695 34.2002 45C34.2002 39.0304 39.0307 34.2 45.0002 34.2C48.0447 34.2 50.9275 35.4937 52.9596 37.7156L53.9439 38.7844L64.8424 32.4703L63.6119 30.8461C59.1963 25.0312 52.3619 21.6 45.0002 21.6ZM45.0002 25.2C50.5338 25.2 55.5963 27.5695 59.3018 31.5211L54.3658 34.3758C51.7643 32.0976 48.5299 30.6 45.0002 30.6C37.076 30.6 30.6002 37.0758 30.6002 45C30.6002 52.9242 37.076 59.4 45.0002 59.4C48.5299 59.4 51.7643 57.9023 54.3658 55.6242L59.3018 58.4789C55.5963 62.4304 50.5338 64.8 45.0002 64.8C34.0666 64.8 25.2002 55.9336 25.2002 45C25.2002 34.0664 34.0666 25.2 45.0002 25.2ZM59.4002 39.6V43.2H55.8002V46.8H59.4002V50.4H63.0002V46.8H66.6002V43.2H63.0002V39.6H59.4002Z" fill="black"/>
</svg>
