<svg width="90" height="87" viewBox="0 0 90 87" fill="none" xmlns="http://www.w3.org/2000/svg">
<path d="M44.9999 6.91199C46.0194 6.91199 46.9756 7.28999 47.6928 7.98524L81.6819 40.6147C83.1725 42.039 83.1725 44.361 81.6819 45.7852L47.6928 78.4147C46.9756 79.11 46.0194 79.488 44.9999 79.488C43.9803 79.488 43.0241 79.11 42.3069 78.4147L8.31782 45.7852C6.8272 44.361 6.8272 42.039 8.31782 40.6147L30.4944 19.3252L34.5866 23.2537C33.6022 26.7637 34.5936 30.591 37.3639 33.2505C38.0249 33.885 38.7772 34.4317 39.5999 34.884V51.5227C36.3233 53.3385 34.1999 56.7202 34.1999 60.48C34.1999 66.1972 39.0444 70.848 44.9999 70.848C50.9553 70.848 55.7999 66.1972 55.7999 60.48C55.7999 56.7202 53.6764 53.3385 50.3999 51.5227V38.4345L52.5866 40.5337C51.6022 44.0437 52.5936 47.871 55.3639 50.5305C57.403 52.488 60.117 53.568 62.9999 53.568C65.8827 53.568 68.5967 52.488 70.6358 50.5305C74.8475 46.4872 74.8475 39.9127 70.6358 35.8695C68.6038 33.9187 65.9108 32.8455 63.035 32.8455C62.0858 32.8455 61.1366 32.967 60.2225 33.2032L55.4131 28.5862C56.3975 25.0762 55.4061 21.249 52.6358 18.5895C50.6038 16.6387 47.9108 15.5655 45.035 15.5655C44.0858 15.5655 43.1366 15.687 42.2225 15.9232L38.1303 11.9947L42.3069 7.98524C43.0241 7.28999 43.9803 6.91199 44.9999 6.91199ZM44.9999 3.45599C43.1014 3.45599 41.203 4.15124 39.7616 5.54174L33.0397 11.9947L41.3577 19.98C42.4897 19.3455 43.7624 19.0215 45.035 19.0215C46.8631 19.0215 48.6913 19.6897 50.0905 21.033C52.46 23.3077 52.8045 26.7637 51.1803 29.4097L59.3577 37.26C60.4897 36.6255 61.7624 36.3015 63.035 36.3015C64.8631 36.3015 66.6913 36.9697 68.0905 38.313C70.903 41.013 70.903 45.387 68.0905 48.087C66.6842 49.437 64.842 50.112 62.9999 50.112C61.1577 50.112 59.3155 49.437 57.9092 48.087C55.5397 45.8122 55.1952 42.3562 56.8194 39.7035L48.642 31.8532C48.0584 32.184 47.4397 32.427 46.7999 32.5822V53.811C49.9006 54.5805 52.1999 57.2602 52.1999 60.48C52.1999 64.3005 48.9795 67.392 44.9999 67.392C41.0272 67.392 37.7999 64.3005 37.7999 60.48C37.7999 57.2602 40.0991 54.5805 43.1999 53.811V32.5822C41.9975 32.2852 40.8514 31.7115 39.9092 30.807C37.5397 28.5322 37.1952 25.0762 38.8194 22.4302L30.4944 14.4382L5.77251 38.1712C2.87563 40.9455 2.87563 45.4545 5.77251 48.2287L39.7616 80.8582C41.203 82.2487 43.1014 82.944 44.9999 82.944C46.8983 82.944 48.7967 82.2487 50.2381 80.8582L84.2272 48.2287C87.1241 45.4545 87.1241 40.9455 84.2272 38.1712L50.2381 5.54174C48.7967 4.15124 46.8983 3.45599 44.9999 3.45599Z" fill="black"/>
</svg>
