<svg width="90" height="90" viewBox="0 0 90 90" fill="none" xmlns="http://www.w3.org/2000/svg">
<path d="M12.0023 7.20001C9.37261 7.20001 7.19995 9.37267 7.19995 12.0024V77.9977C7.19995 80.6274 9.37261 82.8 12.0023 82.8H77.9976C80.6273 82.8 82.7999 80.6344 82.7999 77.9977V12.0024C82.7999 9.37267 80.6343 7.20001 77.9976 7.20001H12.0023ZM12.0023 10.8H77.9976C78.6656 10.8 79.2 11.3344 79.2 12.0024V77.9977C79.2 78.6656 78.6656 79.2 77.9976 79.2H12.0023C11.3343 79.2 10.8 78.6656 10.8 77.9977V12.0024C10.8 11.3344 11.3343 10.8 12.0023 10.8ZM41.4 41.4V64.0336C41.4 67.507 40.0851 68.4 37.7999 68.4C35.4093 68.4 33.75 66.9094 32.6531 64.9758L27 68.4C28.6382 71.8664 32.6531 75.6 38.2218 75.6C44.3812 75.6 48.5999 72.3234 48.5999 65.1305V41.4H41.4ZM63.8156 41.4C57.6843 41.4 53.7539 45.3234 53.7539 50.4774C53.7539 56.0672 57.0515 58.7109 62.0085 60.8203L63.7242 61.5586C66.8531 62.9297 68.3999 63.7664 68.3999 66.1219C68.3999 68.0836 66.9093 69.5039 64.0617 69.5039C60.6726 69.5039 59.0695 67.2047 57.5999 64.8L52.2 68.4C54.2179 72.3867 57.839 75.6 64.2164 75.6C70.7414 75.6 75.6 72.2109 75.6 66.0305C75.6 60.293 72.3093 57.7406 66.4664 55.2375L64.7507 54.5063C61.8046 53.2266 60.5249 52.3969 60.5249 50.3367C60.5249 48.6703 61.8046 47.3906 63.8156 47.3906C65.7914 47.3906 67.057 48.2274 68.2312 50.3367L73.582 46.9055C71.325 42.9188 68.182 41.4 63.8156 41.4Z" fill="black"/>
</svg>
