<svg width="90" height="90" viewBox="0 0 90 90" fill="none" xmlns="http://www.w3.org/2000/svg">
<g clip-path="url(#clip0_309_71)">
<path d="M56.1024 14.4C55.2587 14.3789 54.5204 14.7024 54.1407 15.6375C53.4938 17.2055 55.104 18.7383 55.6805 19.5399C56.0813 20.0953 56.6016 20.7211 56.8899 21.3469C57.0798 21.7617 57.1079 22.1766 57.2696 22.6125C57.6704 23.6883 58.3102 24.9117 58.8235 25.9102C59.0837 26.4164 59.3719 26.9438 59.7024 27.3938C59.9063 27.668 60.2509 27.7945 60.3071 28.2164C59.9696 28.6945 59.9485 29.4328 59.7587 30.0375C58.9009 32.7445 59.2243 36.1125 60.4688 38.1094C60.8555 38.7281 61.7626 40.043 63.0001 39.5438C64.0829 39.1008 63.8438 37.7297 64.1532 36.5133C64.2235 36.2461 64.1813 36.0422 64.3219 35.8594V35.9156C64.6454 36.5766 64.9759 37.2375 65.3063 37.8914C66.0446 39.0727 67.3454 40.3031 68.4423 41.1399C69.0118 41.5688 69.4618 42.3141 70.2001 42.5672V42.5109H70.1438C70.0032 42.2859 69.7782 42.1945 69.5954 42.0188C69.1665 41.5969 68.6884 41.0695 68.3368 40.5844C67.3313 39.2274 66.4454 37.7367 65.6438 36.1899C65.2571 35.4516 64.9196 34.6359 64.5962 33.8836C64.4696 33.5883 64.4696 33.1524 64.2094 32.9977C63.8509 33.5531 63.3305 33.9961 63.0563 34.65C62.6204 35.6906 62.5571 36.9633 62.3954 38.2781C62.2969 38.3133 62.3391 38.2852 62.2899 38.3344C61.5235 38.1445 61.2493 37.357 60.968 36.682C60.2509 34.9734 60.1102 32.2172 60.7501 30.2555C60.9118 29.7422 61.6501 28.1391 61.3548 27.668C61.2141 27.1969 60.736 26.9297 60.4759 26.5711C60.1454 26.1281 59.8219 25.5445 59.5969 25.0313C59.0063 23.6953 58.4509 22.1484 57.8251 20.7984C57.5298 20.1516 57.0305 19.5047 56.6157 18.9281C56.1587 18.2953 55.6524 17.8313 55.2938 17.0578C55.1743 16.7906 54.9985 16.3547 55.1884 16.0734C55.2446 15.8836 55.329 15.8063 55.5188 15.743C55.8352 15.4969 56.7212 15.8203 57.0587 15.9609C57.9376 16.3266 58.6759 16.6781 59.4212 17.1703C59.7798 17.4094 60.1384 17.8664 60.5743 18H61.0665C61.8469 18.1758 62.7118 18.0492 63.429 18.2742C64.7087 18.6609 65.8548 19.2656 66.8884 19.9195C70.0594 21.9164 72.654 24.7641 74.4188 28.1602C74.7071 28.7086 74.8337 29.2359 75.0868 29.8125C75.586 30.9797 76.2259 32.1891 76.7321 33.3281C77.2313 34.4742 77.7235 35.6203 78.4337 36.5695C78.8063 37.0688 80.2548 37.343 80.9087 37.6172C81.3657 37.8141 82.1251 38.018 82.554 38.2781C83.3907 38.7774 84.1923 39.375 84.9727 39.9305C85.3665 40.2047 86.5618 40.8024 86.6251 41.3016C84.6915 41.2524 83.2149 41.4281 81.9563 41.9625C81.5977 42.1172 81.0212 42.1172 80.9649 42.5672C81.1548 42.7711 81.1899 43.0805 81.3446 43.3336C81.6469 43.8188 82.1532 44.4727 82.6102 44.8172C83.1094 45.1899 83.6157 45.5906 84.1501 45.9211C85.0923 46.4906 86.1469 46.8211 87.061 47.3977C87.5954 47.7422 88.1368 48.1711 88.6571 48.5508C88.9173 48.7477 89.086 49.043 89.4235 49.1625V49.1063C89.2477 48.8813 89.2055 48.5719 89.0438 48.3399L88.3196 47.6156C87.6235 46.6945 86.7376 45.8789 85.7954 45.2039C85.043 44.6625 83.3626 43.9313 83.0532 43.0594L82.9969 43.0031C83.5243 42.9469 84.1501 42.75 84.6423 42.6164C85.4719 42.3984 86.2032 42.4547 87.054 42.2367C87.4407 42.1242 87.8274 42.0117 88.2141 41.9063V41.6813C87.7852 41.2453 87.4759 40.6547 87.0048 40.2539C85.7743 39.2063 84.4313 38.1586 83.0462 37.2867C82.2798 36.8016 81.3305 36.4852 80.5219 36.0774C80.2477 35.9367 79.7696 35.8664 79.5868 35.6344C79.1579 35.093 78.9258 34.4039 78.5954 33.7711C77.9063 32.4422 77.2313 30.9938 76.6196 29.5945C76.2048 28.6453 75.9305 27.7031 75.4102 26.8453C72.9141 22.7461 70.2282 20.2641 66.0657 17.8313C65.1798 17.3109 64.118 17.1141 62.993 16.8469C62.3813 16.8047 61.7837 16.7695 61.1719 16.7344C60.8063 16.5797 60.4196 16.1297 60.0751 15.9047C59.2102 15.3633 57.5087 14.4211 56.1024 14.4ZM62.0579 20.3625C61.6571 20.3555 61.3688 20.4117 61.0665 20.475V20.5313H61.1227C61.3126 20.925 61.6571 21.1781 61.8962 21.5156C62.079 21.9024 62.2548 22.2891 62.4376 22.6758L62.4938 22.6195C62.8313 22.3805 62.993 21.9938 62.993 21.4102C62.8524 21.2695 62.8313 21.0867 62.7188 20.918C62.5571 20.6859 62.2548 20.5594 62.0579 20.3625ZM3.36101 43.193C2.8196 43.2141 2.22898 43.3195 1.58914 43.5234C0.520387 43.8469 -0.00695801 44.4867 -0.00695801 45.7875V59.4H3.60007V46.118L8.59929 57.4734C9.21804 58.8867 10.0618 59.393 11.7141 59.393C13.3735 59.393 14.1821 58.8867 14.8009 57.4734L19.8001 46.4063V59.4H23.4001V45.7875C23.4001 44.4867 22.8798 43.8469 21.804 43.5234C19.2446 42.7149 17.5219 43.4109 16.7485 45.1617L11.6157 56.707L6.65164 45.1617C6.08914 43.8469 4.96414 43.1297 3.36101 43.193ZM47.243 43.2C45.8227 43.2 41.4001 43.3688 41.4001 46.8V49.0219C41.4001 50.5969 42.7852 51.8836 45.7876 52.2C46.1251 52.2211 46.4626 52.2492 46.8001 52.2492C46.8001 52.2492 50.3016 52.1789 50.4001 52.2C52.4251 52.2 52.2001 53.775 52.2001 54V55.8C52.2001 56.0461 52.1438 57.6 50.379 57.6H41.4001V59.4H50.4141C51.5954 59.4 52.7415 59.1539 53.6555 58.725C55.1743 58.0289 55.8001 57.0867 55.8001 55.8492V53.2758C55.8001 50.5125 52.3688 50.4 50.4001 50.4H46.8001C45.3868 50.4 45.1688 49.5422 45.0001 48.6V46.8C45.1688 46.0828 45.4852 45.1125 46.7368 45H55.8001V43.2H47.243ZM61.1649 43.2C58.5071 43.5656 57.5719 44.8875 57.5719 46.8V55.8C57.5719 57.5508 58.5493 58.6055 60.5602 59.1539C61.2352 59.3438 61.8469 59.4211 62.4235 59.4211L66.4313 59.4H68.7868L70.7907 61.2H74.8407L72.0563 58.6899C73.3641 58.1484 73.7719 57.3188 73.7719 55.7649V46.8C73.7719 44.8875 72.5274 43.5656 69.8696 43.2H61.1649ZM75.6001 43.2V55.7227C75.6001 57.8953 76.8305 59.1188 80.086 59.3649C80.3884 59.3789 80.6977 59.4 81.0001 59.4H90.0001V57.6H81.6821C79.8259 57.6 79.2001 56.8195 79.2001 55.7086V43.2H75.6001ZM63.3094 45H67.943C69.1665 45 69.9891 45.9844 70.1719 46.8C70.1719 46.8 70.2001 55.1813 70.2001 55.8C70.2001 56.4188 69.8555 56.7 69.8555 56.7L68.8782 55.8H64.8001L66.804 57.6H63.3094C62.0579 57.6 61.3548 56.6719 61.1719 55.8V46.9828C61.1719 46.0266 61.9032 45 63.3094 45ZM25.2001 48.6C25.2704 48.6703 25.2001 56.2711 25.2001 56.4188C25.2282 57.9938 27.2251 59.3719 30.354 59.4H36.0001V59.5195C36.0001 59.857 36.2462 60.982 34.2001 61.2C34.179 61.2 25.2212 61.2 25.2001 61.2V63H34.5868C36.1759 62.9508 39.6212 62.5922 39.6001 59.8359C39.6001 59.7867 39.6141 48.6 39.6001 48.6H36.0001V57.6C35.9438 57.6 31.5423 57.6141 30.6563 57.6C28.9196 57.5719 28.7719 56.5805 28.8001 56.2008V48.6H25.2001Z" fill="black"/>
</g>
<defs>
<clipPath id="clip0_309_71">
<rect width="90" height="90" fill="white"/>
</clipPath>
</defs>
</svg>
