<svg width="90" height="90" viewBox="0 0 90 90" fill="none" xmlns="http://www.w3.org/2000/svg">
<path d="M41.1326 10.4449C37.1222 10.4449 32.8891 11.1955 28.8877 12.6175C24.0961 14.3203 15.0365 18.133 8.19473 24.532C1.24853 31.03 -0.465101 37.2811 0.245899 40.9675C1.5797 47.8759 8.22057 52.6053 13.2678 56.0847C9.58137 58.3419 5.57626 61.4508 3.97246 64.9968C2.45866 68.3412 2.37791 71.7858 3.73691 74.6964C4.75211 76.869 6.48582 78.481 8.37402 79.0066C9.68082 79.3702 11.0317 79.555 12.3889 79.555C17.7493 79.555 23.0375 76.6296 26.1947 71.9226C26.6681 71.217 27.076 70.483 27.4252 69.7324C27.6178 69.961 27.8177 70.1778 28.0229 70.3722C29.7455 72.0048 31.7986 72.0035 32.4736 72.0035C34.5544 72.0035 36.019 71.1016 37.0756 69.982C37.9576 70.5688 38.9953 70.882 40.1131 70.882C40.2481 70.882 40.3877 70.8806 40.5209 70.8644C42.7583 70.5908 45.1721 68.407 45.1721 68.407C45.2657 68.488 45.3596 68.5634 45.4604 68.639C46.4108 69.3554 47.6065 69.7043 49.1131 69.7043C49.3633 69.7043 49.622 69.6976 49.883 69.6796C51.7244 69.5554 53.1127 69.1152 53.9857 68.748C54.8641 68.4276 56.1356 67.8611 57.4064 66.9269C57.7142 66.7001 58.0082 66.4617 58.2818 66.2097C58.8416 66.5499 59.4734 66.7953 60.1592 66.9339C60.494 67.0023 60.8433 67.0359 61.2033 67.0359C62.1501 67.0359 63.1748 66.8045 64.3322 66.3293C65.2718 66.0053 66.6278 65.4244 67.9814 64.4308C71.117 62.125 72.6427 59.3845 72.5131 56.2921C72.5095 56.1967 72.5027 56.1011 72.4955 56.0039C72.9581 55.9535 73.4367 55.93 73.9299 55.93C74.5401 55.93 75.1837 55.9705 75.8389 56.0461C80.1319 56.5483 81.0547 58.5739 81.0385 59.2453C81.0115 59.4217 80.7059 59.7052 80.4197 59.8816C78.6035 61.0048 77.8475 62.4632 78.1697 64.2164C78.5135 66.1136 80.1071 67.4437 82.0439 67.4437C82.4129 67.4437 82.7355 67.3973 83.0037 67.3523C85.3059 66.9635 89.6927 64.1065 89.8943 58.9711C90.0131 55.9903 88.7921 52.9403 86.5475 50.6039C83.7269 47.6699 79.591 46.0546 74.9002 46.0546H74.7912C72.8544 46.0654 70.9734 46.3309 69.1662 46.8457L69.11 46.4379C69.0002 45.6657 68.9585 45.376 69.0467 44.7047C69.1259 44.1016 69.4943 43.0119 69.6725 42.4863C69.9227 41.7519 70.1046 41.2215 70.0416 40.4367C69.9192 38.9049 68.6463 36.303 64.6557 36.2742H64.6416H64.5432C60.9972 36.2742 58.8062 37.3041 58.0322 39.3363C57.935 39.5901 57.8206 39.9249 57.7018 40.3101C56.8738 39.4389 55.5435 38.753 53.5041 38.7386H53.49H53.3881C52.9651 38.7386 52.5621 38.7555 52.1787 38.7843C57.2943 34.0449 60.555 27.2389 58.8936 20.7175C57.279 14.3815 50.4728 10.4449 41.1326 10.4449ZM41.1291 14.0273C48.3111 14.0273 54.1797 16.7128 55.4271 21.607C57.2523 28.7638 51.0363 37.3235 43.0803 40.4015C38.9457 42.0017 35.2266 42.5214 32.3646 42.5214C30.3108 42.5214 28.6969 42.2515 27.6889 41.9203C24.9457 41.0203 23.3352 39.2143 22.9428 38.1937C22.7898 37.7941 22.5234 37.1216 22.9428 36.8894C23.0148 36.8498 23.0766 36.8226 23.1396 36.8226C23.3052 36.8226 23.4989 36.9926 23.9939 37.5398C24.5681 38.1734 26.6628 39.7406 30.54 39.7406C31.0854 39.7406 31.6699 39.7124 32.2873 39.6422C45.4183 38.1697 53.3271 27.9654 50.8287 22.4754C49.9107 20.4594 46.6898 19.0265 42.008 19.0265C37.7654 19.0265 32.3227 20.2061 26.3107 23.2031C10.8739 30.8945 10.0382 37.2337 9.90684 39.6422C9.54504 46.2661 18.0814 49.7536 22.7002 54.682C22.7614 54.7468 22.8201 54.8106 22.8795 54.8754C23.7453 54.3984 24.6568 53.8972 25.5514 53.4058C27.8806 52.126 30.073 50.9263 31.099 50.3683C32.7244 48.0067 36.0266 45.4007 38.408 45.4007C42.2168 45.4007 40.9041 50.8711 40.9041 50.8711C40.9041 50.8711 40.9825 50.6162 41.0869 50.6144C41.1697 50.6126 41.4372 50.189 42.0924 50.189C42.2886 50.189 42.5167 50.2271 42.7885 50.3261C43.9981 50.7689 43.7235 51.6179 43.7307 51.7043C43.7451 51.8717 42.3033 56.7359 41.7021 59.8535C41.4159 61.3403 41.5824 62.4234 41.667 62.4234C41.7858 62.4234 42.0256 62.0427 42.2506 61.6359L42.2471 61.6254C42.2471 61.6254 42.4145 61.3201 42.6971 60.7675C42.7331 60.6937 42.7533 60.648 42.7533 60.648L42.7568 60.6515C43.088 59.9999 43.5546 59.0463 44.0928 57.8601C45.1494 55.5309 49.1824 46.5438 49.5244 45.5484C49.8664 44.553 50.0461 43.5231 50.2135 43.0839C50.3791 42.6519 51.7556 42.3246 53.3846 42.3246H53.4725C55.1393 42.3372 55.3056 43.0453 55.3182 43.1929C55.3308 43.3405 54.5244 45.3118 54.3408 46.705C54.1572 48.0982 54.3338 48.7975 54.485 49.9675C54.5858 50.7343 55.0641 51.7048 55.6275 52.8046C57.3501 49.9859 60.3861 44.5941 60.6795 43.0839C60.8793 42.0525 61.2012 41.0622 61.3686 40.623C61.5342 40.191 62.9124 39.8601 64.5396 39.8601H64.624C66.2908 39.8727 66.4606 40.5844 66.4732 40.732C66.4858 40.8796 65.6795 42.8509 65.4959 44.2441C65.3123 45.6373 65.4888 46.3331 65.64 47.5031C65.7696 48.5039 66.5467 49.8543 67.3135 51.3843C69.4105 50.3511 71.9128 49.655 74.8018 49.6406H74.8932C82.3074 49.6406 86.4882 54.4545 86.3154 58.8375C86.1858 62.2971 83.0035 63.7253 82.4131 63.8261C82.2691 63.8513 82.1447 63.8683 82.0439 63.8683C81.8441 63.8683 81.7303 63.7962 81.6889 63.573C81.6457 63.3408 81.8001 63.234 82.3041 62.9226C82.8081 62.6112 84.314 61.578 84.5822 59.6988C84.8522 57.8196 83.4411 53.3324 76.2537 52.4918C75.4365 52.3964 74.6643 52.3546 73.9299 52.3546C71.6565 52.3546 69.777 52.7791 68.2416 53.4199C68.6196 54.3973 68.898 55.4138 68.9412 56.4398C69.0348 58.6934 67.4779 60.3582 65.8615 61.548C64.9201 62.241 63.9089 62.7034 63.0701 62.9824C62.5085 63.22 61.7937 63.4605 61.2033 63.4605C61.0845 63.4605 60.972 63.4505 60.8658 63.4289C59.4636 63.1463 58.7165 61.9024 59.6705 59.1574C60.1871 57.6724 61.6728 55.4097 64.0686 53.4621C63.5214 52.3371 62.9121 51.191 62.6025 50.1398C61.9923 48.0644 61.8045 46.8105 61.8045 46.8105C61.8045 46.8105 59.8252 50.905 57.2764 54.6328C57.1288 54.8488 56.9827 55.0585 56.8369 55.2691C57.3373 56.4301 57.7339 57.6623 57.7861 58.9043C57.8797 61.1561 56.9029 62.8578 55.2865 64.0476C54.4099 64.692 53.4772 65.1378 52.6744 65.4222C52.1596 65.6454 51.1183 66.0105 49.6369 66.1113C49.4587 66.1239 49.2824 66.1324 49.1096 66.1324C48.4994 66.1324 47.9504 66.0453 47.6084 65.7879C47.009 65.3379 46.9367 64.7757 47.2463 64.0125C47.5091 63.3645 49.4717 61.1212 51.1205 59.1574C51.5741 58.6156 52.0097 58.0637 52.3967 57.5507C52.3913 57.5381 52.3896 57.5296 52.3896 57.5296C52.3896 57.5296 52.6876 57.1446 53.1736 56.4714C52.5724 55.1772 51.8075 53.8247 51.4475 52.6043C50.8373 50.5289 50.6529 49.2714 50.6529 49.2714C50.6529 49.2714 48.6487 54.4084 46.5607 58.507C44.9443 61.6804 43.8651 63.6042 43.3791 64.4484C43.3755 64.47 43.3721 64.48 43.3721 64.48C43.3721 64.48 43.3012 64.6038 43.1752 64.7964C43.114 64.9008 43.0838 64.9547 43.0838 64.9547C43.0838 64.9547 43.0821 64.9478 43.0803 64.9406C42.5385 65.7398 41.3209 67.3066 40.1131 67.3066C36.7939 67.3066 38.0143 60.5707 38.0143 60.5707C38.0143 60.5707 37.045 63.0658 35.9506 65.2078C35.0596 66.9538 34.2484 68.4316 32.4736 68.4316C31.9606 68.4316 31.1535 68.4149 30.4803 67.7777C28.9557 66.3305 27.7907 62.6553 28.0193 59.8113C28.2137 57.3903 28.5857 55.715 29.0951 54.3164C28.1825 54.8132 27.1321 55.4003 26.0611 56.0285C25.5121 56.3507 24.9594 56.6784 24.4158 56.9988C24.4338 57.0312 24.4524 57.0648 24.4686 57.0972C25.833 59.7324 26.1923 65.5012 23.2205 69.9328C20.8103 73.5274 16.7216 75.9832 12.3854 75.9832C11.3738 75.9832 10.3491 75.8492 9.33027 75.5648C7.59147 75.0806 4.96173 71.4846 7.22793 66.4734C9.22593 62.0562 17.214 57.874 19.3182 56.8336C19.4946 56.7364 19.6912 56.6306 19.8982 56.5172C15.7024 52.8469 5.21978 47.8975 3.75098 40.2925C3.33698 38.1523 4.34006 33.0283 10.6311 27.1441C15.9213 22.1959 23.2827 18.4081 30.0795 15.9925C33.8217 14.6623 37.6299 14.0273 41.1291 14.0273ZM42.015 22.5949C45.849 22.5949 47.4125 23.7082 47.5943 23.9836C47.8463 24.5416 47.7894 25.7873 46.8174 27.5027C44.7348 31.1747 39.3114 35.2527 31.8936 36.0843C31.431 36.1365 30.9791 36.1617 30.5471 36.1617C27.7733 36.1617 26.6204 35.1037 26.6096 35.0929C25.9652 34.3801 24.9323 33.242 23.1467 33.2402C22.4807 33.2402 21.8322 33.415 21.2166 33.757C20.6928 34.0468 18.1539 35.6831 19.6029 39.4523C20.3895 41.4971 22.8465 44.0924 26.5779 45.3164C27.5751 45.644 28.7965 45.8725 30.1393 45.9949C29.5957 46.5349 29.1135 47.0796 28.7049 47.598C27.5439 48.2316 25.7347 49.2224 23.8357 50.2664L23.4771 50.4597C22.3161 49.4373 21.078 48.4882 19.8666 47.5558C15.921 44.521 13.3454 42.343 13.4822 39.832C13.772 34.5256 21.488 29.5957 27.9104 26.3953C32.828 23.9455 37.8372 22.5949 42.015 22.5949ZM46.5959 42.7289C46.5653 42.8459 46.5386 42.9668 46.508 43.091C46.4054 43.505 46.2898 43.9709 46.1494 44.3777C46.0306 44.7017 45.532 45.8543 44.8732 47.3519C44.7724 47.2943 44.6701 47.2406 44.5639 47.1902C44.3839 46.1426 44.0057 45.0658 43.2947 44.1316C43.6511 44.0056 44.0086 43.8712 44.374 43.7308C45.1228 43.441 45.8651 43.1069 46.5959 42.7289ZM38.3271 48.6316C37.7079 48.6316 36.7038 49.1713 35.7678 50.2172C34.9614 51.1207 33.5873 53.4481 32.9447 55.3957C31.6667 59.2657 32.2168 63.1983 33.124 63.4359C33.151 63.4431 33.1814 63.4464 33.2084 63.4464C34.2704 63.4464 35.9387 58.4864 36.7451 56.5172C37.2653 55.2499 39.2867 49.6283 38.8439 48.8777C38.7467 48.7139 38.5665 48.6316 38.3271 48.6316ZM65.2146 55.0054C63.8718 56.1916 63.0991 57.435 62.7607 58.173C61.8985 60.0522 61.8564 60.6542 62.1174 60.8414C63.372 60.3914 65.4427 59.3046 65.4607 56.3976C65.4643 55.962 65.3712 55.4932 65.2146 55.0054ZM21.867 58.2082C21.7374 58.2838 21.6167 58.3577 21.4979 58.4296V58.4332C21.4979 58.4332 21.4422 58.4652 21.3396 58.5246C20.7204 58.8954 20.2087 59.2017 19.8631 59.4105C18.3385 60.3627 16.0394 61.9112 14.2592 63.5906C11.3378 66.3464 10.725 70.172 12.2658 71.0648C12.5952 71.2556 13.0293 71.3496 13.5279 71.3496C15.1839 71.3496 17.5684 70.3083 19.399 68.3121C21.8974 65.5851 22.929 62.1304 21.867 58.2082ZM54.3021 58.6582C53.7837 59.3386 53.3063 59.9435 52.8959 60.4547C52.1903 61.333 50.3963 63.2601 50.3963 63.2601C50.3963 63.2601 50.1423 63.5012 50.2521 63.566C50.2881 63.5876 50.3335 63.5976 50.3857 63.5976C50.5567 63.5976 50.8083 63.4954 51.0783 63.355C52.0737 62.7286 54.3038 61.1698 54.3092 58.8586C54.3092 58.792 54.3075 58.7266 54.3021 58.6582Z" fill="black"/>
</svg>
